<svg width="293.04" height="76.338" xmlns="http://www.w3.org/2000/svg"><path d="M101.664 493.059V112.59h498.352v147.101H268.121v148.118h296.59v132.3zm605.289 61.511V381.609c0-42.988 7.055-82.121 21.195-117.379 14.11-35.25 34.29-65.492 60.536-90.671 26.218-25.2 58.14-44.848 95.816-58.938 37.676-14.109 80.039-21.172 127.11-21.172 46.43 0 88.62 7.063 126.61 21.172 37.99 14.09 70.44 33.738 97.37 58.938 26.89 25.179 47.55 55.421 62.03 90.671 14.45 35.258 21.7 74.391 21.7 117.379v235.2l-172.52-17.528V395.719c0-19.5-2.37-37.957-7.06-55.41-4.71-17.469-12.44-33.079-23.2-46.86-10.78-13.769-24.72-24.668-41.88-32.738-17.13-8.082-37.82-12.09-62.03-12.09-24.216 0-44.903 4.008-62.032 12.09-17.16 8.07-30.961 18.969-41.375 32.738-10.442 13.781-18.149 29.391-23.2 46.86-5.05 17.453-7.562 35.91-7.562 55.41v176.293zm751.567 76.41V112.59H1627v283.129h58.79l155.08-283.129h201.77L1856 417.879c46.4 14.121 82.72 37.601 108.94 70.551 26.25 32.879 39.37 73.531 39.37 121.89 0 28.258-3.95 53.102-11.32 74.969l-188.18-19.141c6.99-4.988 13.34-10.718 18.34-18.027 7.08-10.422 10.67-24.031 10.67-40.82 0-18.121-3.9-32.922-11.69-44.321-7.76-11.429-17.72-20.16-29.88-26.199-12.17-6.043-25.69-10.242-40.56-12.59-14.87-2.371-29.41-3.531-43.6-3.531h-82.1V648Zm664.8-4.031c-19.5-46.019-29.23-97.558-29.23-154.668 0-56.402 9.73-107.972 29.23-154.64 19.51-46.692 46.57-86.661 81.23-119.911 34.63-33.261 75.66-58.941 123.08-77.07 47.41-18.148 99-27.21 154.85-27.21 55.8 0 107.59 9.062 155.37 27.21 47.72 18.129 88.93 43.809 123.56 77.07 34.62 33.25 61.69 73.219 81.22 119.911 19.5 46.668 29.27 98.238 29.27 154.64 0 57.11-9.77 108.649-29.27 154.668-19.53 46.012-46.6 85.133-81.22 117.399-6.47 5.984-13.38 11.492-20.3 16.996l-573.36-58.293c-17.5-22.922-32.54-48.071-44.43-76.102m155.37-154.668c0 30.91 4.88 59.789 14.62 86.66 9.76 26.848 23.73 49.879 41.88 69.02 18.15 19.141 39.68 34.269 64.57 45.34 24.87 11.09 52.44 16.621 82.72 16.621 30.26 0 58-5.531 83.23-16.621 25.2-11.071 46.74-26.199 64.55-45.34 17.83-19.141 31.77-42.172 41.88-69.02 10.07-26.871 15.13-55.75 15.13-86.66 0-32.242-5.06-61.961-15.13-89.152-10.11-27.207-24.22-50.551-42.36-70.027-18.18-19.481-39.71-34.75-64.58-45.852-24.89-11.09-52.46-16.621-82.72-16.621-30.28 0-57.85 5.531-82.72 16.621-24.89 11.102-46.25 26.371-64.06 45.852-17.84 19.476-31.78 42.82-41.88 70.027-10.08 27.191-15.13 56.91-15.13 89.152m707.2 313.93V112.59h172.49v269.019h85.77c36.97 0 72.62 4.039 106.94 12.082 34.29 8.071 64.54 20.829 90.79 38.309 26.22 17.441 47.04 40.449 62.54 69.02 15.46 28.539 23.2 63.621 23.2 105.289 0 40.961-7.23 75.371-21.71 103.261-14.45 27.864-34.29 50.387-59.52 67.524-25.2 17.105-54.81 29.527-88.76 37.261-11.65 2.653-23.99 4.208-36.23 5.958zm172.49-99.313h75.67c15.46 0 30.42-1.007 44.9-3.019 14.45-2 27.38-6.039 38.83-12.078 11.43-6.071 20.52-14.449 27.24-25.211 6.71-10.75 10.1-24.531 10.1-41.301 0-16.789-3.39-30.738-10.1-41.801-6.72-11.097-15.98-20.019-27.74-26.707-11.77-6.722-25.07-11.429-39.86-14.109-14.78-2.684-30.25-4.043-46.39-4.043h-72.65zm473.15 122.489V112.59h498.35v147.101h-331.89v148.118h296.59V545.84h-296.59v135.019h313.75v80.313l-480.21 48.215M1271.91 1392.14 1388.92 1509c-30.25 34.27-69.76 60.3-118.53 78.11-48.77 17.78-98.36 26.68-148.79 26.68-54.5 0-105.27-8.72-152.346-26.2-47.074-17.47-88.109-42.48-123.078-75.06-34.965-32.58-62.399-72.04-82.211-118.39-19.84-46.32-29.774-98.07-29.774-155.14 0-30.75 3.274-59.93 9.2-87.8l202.695-19.76c-3.051 6.3-6.578 12.11-9.117 18.89-10.074 26.85-15.129 56.43-15.129 88.67 0 31.55 5.055 60.6 15.129 87.14 10.101 26.53 24.215 49.54 42.359 69.02 18.176 19.47 39.852 34.77 65.082 45.84 25.23 11.09 52.97 16.63 83.23 16.63 27.57 0 54.47-5.4 80.72-16.12 26.21-10.76 47.41-27.21 63.55-49.37M1833.26 1331.7c-7.79-11.43-17.75-20.16-29.92-26.23-12.16-6.04-25.68-10.24-40.53-12.59-14.87-2.34-29.4-3.52-43.6-3.52h-82.13v166.26h92.26c12.84 0 26.19-1.01 40.05-3.02 13.86-2.03 26.33-5.9 37.51-11.6 11.15-5.7 20.26-13.78 27.37-24.16 7.09-10.45 10.64-24.05 10.64-40.82 0-18.13-3.89-32.92-11.65-44.32zm142.8-74.58c26.22 32.91 39.34 73.56 39.34 121.92 0 40.96-7.73 75.23-23.19 102.78-15.5 27.52-36.16 49.68-62.04 66.48-25.91 16.79-55.17 28.74-87.77 35.79-32.63 7.03-66.1 10.56-100.39 10.56h-272.37v-514.22l168.46-16.4v100.41h58.81l61.39-112.12 203-19.79-94.2 154.07c46.42 14.09 82.74 37.6 108.96 70.52M2672.92 1152.85c-10.08-27.19-24.19-50.53-42.37-70.01-18.14-19.51-39.68-34.78-64.57-45.84-24.86-11.1-52.44-16.63-82.72-16.63-30.25 0-57.86 5.53-82.72 16.63-24.89 11.06-46.26 26.33-64.06 45.84-17.81 19.48-31.78 42.82-41.86 70.01-10.1 27.21-15.12 56.93-15.12 89.17 0 30.88 4.85 59.79 14.62 86.66 9.73 26.85 23.7 49.88 41.85 69.02 18.17 19.14 39.68 34.24 64.57 45.34 24.86 11.09 52.47 16.62 82.72 16.62 30.28 0 58.03-5.53 83.23-16.62 25.23-11.1 46.74-26.2 64.57-45.34 17.81-19.14 31.78-42.17 41.86-69.02 10.1-26.87 15.15-55.78 15.15-86.66 0-32.24-5.05-61.96-15.15-89.17zm170.49 243.83c-19.5 46.02-46.57 85.14-81.2 117.38-34.66 32.24-75.83 57.08-123.58 74.55-47.76 17.48-99.55 26.2-155.37 26.2-55.82 0-107.44-8.72-154.86-26.2-47.41-17.47-88.44-42.31-123.07-74.55-34.63-32.24-61.7-71.36-81.2-117.38-19.53-46.01-29.27-97.58-29.27-154.66 0-56.43 9.74-107.97 29.27-154.66 11.4-27.33 25.74-52.09 42.34-74.81l582.28-56.71c4.49 3.867 9.17 7.504 13.46 11.629 34.63 33.251 61.7 73.191 81.2 119.891 19.5 46.69 29.26 98.23 29.26 154.66 0 57.08-9.76 108.65-29.26 154.66M3369.16 1409.75l109.95 115.85c-31.6 28.87-68.43 50.72-110.46 65.51-42.02 14.77-83.23 22.16-123.58 22.16-33.65 0-66.92-4.2-99.88-12.59-32.94-8.41-62.54-21.68-88.76-39.8-26.25-18.15-47.42-41.33-63.56-69.52-16.14-28.21-24.21-62.14-24.21-101.77 0-32.24 5.19-59.62 15.63-82.12 10.41-22.5 24.22-41.66 41.37-57.42 17.14-15.8 36.64-28.73 58.51-38.81 21.84-10.08 44.22-18.8 67.08-26.2 23.54-7.39 44.54-14.25 63.05-20.63 18.49-6.41 33.96-13.46 46.4-21.17 12.45-7.74 22.04-16.29 28.76-25.69 6.72-9.43 10.1-20.83 10.1-34.27 0-14.08-2.71-26.19-8.07-36.27-5.39-10.05-12.61-18.13-21.7-24.17-9.09-6.04-19.67-10.41-31.78-13.1-12.11-2.68-24.55-4.03-37.34-4.03-28.22 0-56.64 7.22-85.23 21.68-28.59 14.42-51.62 32.38-69.12 53.89l-112.97-114.866c11.37-11.855 24.19-22.387 37.68-32.297l380.52-37.062c13.69 6.945 26.73 14.82 38.81 24.023 25.54 19.477 45.88 44.149 61.01 74.043 15.13 29.899 22.72 65.319 22.72 106.309 0 35.6-7.08 65.32-21.19 89.18-14.14 23.82-31.95 43.8-53.49 59.93-21.53 16.11-45.38 29.04-71.62 38.81-26.22 9.71-51.45 18.63-75.64 26.68-16.82 5.39-31.98 10.58-45.41 15.63-13.46 5.03-25.06 10.56-34.8 16.63-9.76 6.04-17.16 13.1-22.21 21.14-5.02 8.08-7.56 18.16-7.56 30.24 0 14.11 3.19 25.69 9.59 34.75 6.38 9.09 14.28 16.46 23.71 22.19 9.4 5.7 20.01 9.57 31.78 11.57s23.37 3.02 34.8 3.02c22.18 0 45.21-5.54 69.11-16.63 23.85-11.06 43.21-26.02 58-44.82M3970.49 1409.27l109.95 115.85c-31.61 28.88-68.44 50.73-110.46 65.52-42.02 14.76-83.23 22.16-123.56 22.16-33.64 0-66.94-4.21-99.88-12.59-32.96-8.41-62.57-21.68-88.79-39.8-26.21-18.15-47.41-41.33-63.55-69.53-16.15-28.2-24.22-62.13-24.22-101.77 0-32.23 5.22-59.61 15.64-82.11 10.41-22.5 24.21-41.67 41.37-57.42 17.13-15.81 36.63-28.74 58.51-38.81a601.468 601.468 0 0 1 67.08-26.2c23.54-7.39 44.56-14.26 63.05-20.64 18.49-6.4 33.95-13.46 46.43-21.17 12.41-7.73 22.01-16.28 28.73-25.69 6.71-9.43 10.1-20.83 10.1-34.27 0-14.08-2.71-26.19-8.07-36.27-5.39-10.05-12.62-18.12-21.7-24.16-9.06-6.05-19.68-10.42-31.78-13.1-12.11-2.68-24.56-4.04-37.31-4.04-28.25 0-56.67 7.23-85.26 21.68-28.59 14.43-51.62 32.38-69.09 53.89l-113-114.862c23.42-24.387 51.33-44.575 83.62-60.665l414.78 59.168c7 9.625 14.06 19.168 19.62 30.207 15.15 29.892 22.72 65.322 22.72 106.312 0 35.59-7.06 65.32-21.2 89.17-14.11 23.83-31.94 43.81-53.45 59.93-21.53 16.12-45.41 29.05-71.63 38.82-26.25 9.71-51.45 18.63-75.66 26.67-16.82 5.39-31.95 10.59-45.41 15.64-13.47 5.02-25.06 10.56-34.8 16.63-9.77 6.04-17.16 13.09-22.18 21.14-5.06 8.07-7.6 18.15-7.6 30.23 0 14.12 3.19 25.69 9.6 34.75 6.38 9.09 14.28 16.46 23.71 22.19 9.39 5.7 20.01 9.57 31.77 11.57 11.77 2.01 23.37 3.02 34.8 3.02 22.21 0 45.24-5.53 69.12-16.62 23.85-11.07 43.21-26.03 58-44.83M4362.92 1011.5v583.15h-173.51V986.742l173.51 24.758M5159.89 1125.2v469.45h-167.47l4.04-465.49h-3.02l-286.52 465.49h-196.74v-562.12l165.98 23.66-2.54 291.63h3.02l165.16-267.98 318.09 45.36M5827.72 1395.16l108.94 123.92c-30.25 28.88-69.6 51.91-118.03 69.02-48.43 17.13-100.86 25.69-157.36 25.69-54.47 0-105.27-8.72-152.35-26.2-47.07-17.47-88.11-42.48-123.08-75.06-34.97-32.58-62.37-72.04-82.21-118.39-19.84-46.32-29.77-98.07-29.77-155.14 0-33.96 3.98-65.78 11.03-95.95l181.67 25.91c-5.48 21.96-9.09 44.97-9.09 70.04 0 32.23 5.22 61.96 15.64 89.17 10.41 27.18 25.06 50.7 43.88 70.51 18.83 19.82 41.01 35.26 66.58 46.36 25.57 11.09 53.48 16.62 83.73 16.62 34.97 0 66.24-6.21 93.85-18.63 27.54-12.45 49.75-28.4 66.57-47.87" style="fill:#fff;fill-opacity:1;fill-rule:nonzero;stroke:none" transform="matrix(.05018 0 0 -.05018 -5.101 81.027)"/><path d="M5941.71 1236.77v65.68h-294.58v-107.72l294.58 42.04" style="fill:#fff;fill-opacity:1;fill-rule:nonzero;stroke:none" transform="matrix(.05018 0 0 -.05018 -5.101 81.027)"/></svg>