<svg xmlns="http://www.w3.org/2000/svg" id="Layer_1" viewBox="0 0 397 213"><defs><style>.cls-1{fill:#fff;stroke-width:0}</style></defs><path d="m11.15 107.46 11.44 16.11 9.08-1.53-1.5-9.05-19.02-5.53M12.89 87.35l8.65 16.06 8.51-.37-.33-8.46-16.83-7.23M18.52 65.14l5.59 16.64 8.14 1.03 1.06-8.09-14.79-9.58M383.96 87.35l-8.65 16.06-8.51-.37.33-8.46 16.83-7.23M315.18 105.84l7.99-11.73v-1.22h-13.94v3.88h7.24l-8.02 11.73v1.22h14.79v-3.88h-8.06m-15.84-13.33c-2.07 0-3.77.75-4.93 1.9v-1.53h-4.22v16.83h4.59v-9.83c0-1.94 1.33-3.26 3.2-3.26s3.13 1.33 3.13 3.26v9.83h4.56V99.27c0-4.05-2.38-6.77-6.32-6.77Zm-18.36 17.21h4.59V92.89h-4.59v16.83Zm2.31-25.81c-1.63 0-2.96 1.22-2.96 2.86s1.33 2.82 2.96 2.82 2.92-1.22 2.92-2.82-1.33-2.86-2.92-2.86Zm-11.53 25.81h4.59v-25.5h-4.59v25.5Zm-18.8 0h4.59v-25.5h-4.59v25.5Zm-12.61-2.96c-1.43 0-2.41-.68-2.41-1.84s.85-1.7 2.35-1.7h3.6v.2c0 1.97-1.6 3.33-3.54 3.33Zm.91-14.25c-2.96 0-5.37 1.12-7.34 3.47l2.38 2.82c1.39-1.46 2.65-2.31 4.45-2.31 2.07 0 3.13 1.12 3.13 2.96v.75h-4.22c-3.88 0-6.36 1.84-6.36 4.9 0 2.86 2.14 5.03 5.81 5.03 2.18 0 3.94-.78 5.13-2.04v1.63h4.22v-10c0-4.79-2.92-7.21-7.21-7.21Zm-13.83.38-4.25 9.55-4.25-9.55h-4.83l8.33 17.24h1.53l8.33-17.24h-4.86Zm-20.67 16.83h4.59V92.89h-4.59v16.83Zm2.31-25.81c-1.63 0-2.96 1.22-2.96 2.86s1.33 2.82 2.96 2.82 2.92-1.22 2.92-2.82-1.33-2.86-2.92-2.86Zm-7.89 22.1c-2.11 0-3.13-.68-3.13-2.62v-6.63h4.76v-3.88h-4.76v-4.25h-4.59v4.25h-2.65v3.88h2.65v7.04c0 4.32 2.58 6.32 6.73 6.32 1.19 0 2.21-.17 3.16-.41v-3.84c-.88.07-1.63.14-2.18.14Zm-18.46-13.53c-3.57 0-6.19 1.84-6.19 5.07 0 2.65 1.73 3.98 4.59 5.13l1.8.75c1.02.44 1.73.75 1.73 1.53 0 .95-.99 1.39-2.14 1.39-1.8 0-3.37-.88-4.73-2.28l-2.31 2.79c1.5 1.97 3.98 3.26 6.97 3.26 3.67 0 6.56-1.9 6.56-5.37 0-2.62-1.7-3.91-4.73-5.13l-1.63-.68c-1.22-.48-1.77-.82-1.77-1.5 0-.82.71-1.19 1.8-1.19 1.36 0 2.69.58 3.77 1.6l2.31-2.82c-1.53-1.7-3.6-2.55-6.05-2.55Zm-17.44 3.74c1.94 0 3.6 1.26 3.64 3.4h-7.68c.54-2.11 2.11-3.4 4.05-3.4Zm8.09 4.11c0-4.35-3.2-7.82-7.92-7.82-4.96 0-8.81 3.84-8.81 8.81s3.88 8.81 9.21 8.81c2.58 0 4.83-.92 6.73-2.52l-1.9-3.13c-1.36 1.05-2.86 1.7-4.69 1.7-2.41 0-4.18-1.19-4.76-3.33h11.83c.14-.58.31-1.56.31-2.52Zm-19.04-12.41c.44 0 .85.03 1.36.1v-3.84c-.65-.2-1.46-.37-2.52-.37-3.91 0-6.49 2.01-6.49 6.32v2.75h-2.38v3.88h2.38v12.95h4.59V96.76h3.71v-3.88h-3.71v-2.35c0-1.94 1.02-2.62 3.06-2.62Zm-28.83 4.59c-2.35 0-4.35.95-5.61 2.41-1.02-1.53-2.72-2.41-5-2.41-2.01 0-3.64.71-4.76 1.87v-1.5h-4.22v16.83h4.59v-9.79c0-2.01 1.26-3.26 3.09-3.26s2.99 1.26 2.99 3.26v9.79h4.59v-9.89c0-1.87 1.26-3.16 3.09-3.16s2.99 1.26 2.99 3.26v9.79h4.59V99.27c0-4.05-2.35-6.77-6.36-6.77Zm-28.8 17.21h4.59v-25.5H96.7v25.5Zm-9.21 0h4.59V92.89h-4.59v16.83Zm2.31-20.13c1.6 0 2.92-1.22 2.92-2.82s-1.33-2.86-2.92-2.86-2.96 1.22-2.96 2.86 1.33 2.82 2.96 2.82Zm-13.67.54v2.75h-2.38v3.88h2.38v12.95h4.59V96.76h3.71v-3.88h-3.71v-2.35c0-1.94 1.02-2.62 3.06-2.62.44 0 .85.03 1.36.1v-3.84c-.65-.2-1.46-.37-2.52-.37-3.91 0-6.49 2.01-6.49 6.32ZM317.8 58.22c1.94 0 3.6 1.26 3.64 3.4h-7.68c.54-2.11 2.11-3.4 4.05-3.4m8.08 4.11c0-4.35-3.2-7.82-7.92-7.82-4.96 0-8.81 3.84-8.81 8.81s3.88 8.81 9.21 8.81c2.58 0 4.83-.92 6.73-2.52l-1.9-3.13c-1.36 1.05-2.86 1.7-4.69 1.7-2.41 0-4.18-1.19-4.76-3.33h11.83c.14-.58.31-1.56.31-2.52Zm-28.46 5.61c-2.14 0-4.25-1.46-4.25-4.66s2.14-4.62 4.25-4.62c2.41 0 4.35 1.8 4.35 4.66s-1.97 4.62-4.35 4.62Zm.85-13.43c-2.35 0-4.25.88-5.41 2.48v-2.11h-4.22v22.95h4.59v-7.75c1.19 1.29 2.96 2.04 5.03 2.04 4.76 0 8.16-3.77 8.16-8.84s-3.4-8.77-8.16-8.77Zm-22.3 4.19c2.48 0 4.35 1.97 4.35 4.62s-1.87 4.56-4.35 4.56-4.35-1.9-4.35-4.56 1.8-4.62 4.35-4.62Zm0-4.19c-5.03 0-9.01 3.81-9.01 8.77s3.98 8.81 8.98 8.81 9.08-3.81 9.08-8.81-4.08-8.77-9.04-8.77Zm-12.14.17c-1.84 0-3.5.78-4.62 2.24v-2.04H255v16.83h4.59v-8.4c0-3.03 1.87-4.39 4.52-4.39h1.22v-4.05c-.44-.14-.88-.2-1.5-.2Zm-13.29.21h-4.59v9.79c0 1.97-1.39 3.23-3.13 3.23s-3.2-1.26-3.2-3.23v-9.79h-4.59v9.42c0 4.76 3.33 7.82 7.79 7.82s7.72-3.06 7.72-7.82v-9.42Zm-27.07 3.33c1.94 0 3.6 1.26 3.64 3.4h-7.68c.54-2.11 2.11-3.4 4.05-3.4Zm8.09 4.11c0-4.35-3.2-7.82-7.92-7.82-4.96 0-8.81 3.84-8.81 8.81s3.88 8.81 9.21 8.81c2.58 0 4.83-.92 6.73-2.52l-1.9-3.13c-1.36 1.05-2.86 1.7-4.69 1.7-2.41 0-4.18-1.19-4.76-3.33h11.83c.14-.58.31-1.56.31-2.52Zm-38.75 5c-2.35 0-4.35-1.73-4.35-4.52s1.97-4.39 4.35-4.39c2.11 0 4.25 1.26 4.25 4.35s-2.11 4.56-4.25 4.56Zm4.55-12.44V57c-1.16-1.6-3.06-2.48-5.51-2.48-4.59 0-8.06 3.26-8.06 8.33s3.43 8.36 8.06 8.36c2.11 0 3.94-.71 5.13-2.01v.92c0 2.72-1.9 3.98-4.49 3.98-2.18 0-3.81-.88-5.47-2.18l-2.41 3.2c1.9 1.7 4.59 3.13 8.26 3.13 5.07 0 8.7-2.72 8.7-8.4V54.89h-4.22Zm-23.49-.38c-2.07 0-3.77.75-4.93 1.9v-1.53h-4.22v16.83h4.59v-9.83c0-1.94 1.33-3.26 3.2-3.26s3.13 1.33 3.13 3.26v9.83h4.56V61.27c0-4.05-2.38-6.77-6.32-6.77Zm-18.36 17.21h4.59V54.89h-4.59v16.83Zm2.31-25.81c-1.63 0-2.96 1.22-2.96 2.86s1.33 2.82 2.96 2.82 2.92-1.22 2.92-2.82-1.33-2.86-2.92-2.86Zm-12.14 8.57c-3.57 0-6.19 1.84-6.19 5.07 0 2.65 1.73 3.98 4.59 5.13l1.8.75c1.02.44 1.73.75 1.73 1.53 0 .95-.99 1.39-2.14 1.39-1.8 0-3.37-.88-4.73-2.28l-2.31 2.79c1.5 1.97 3.98 3.26 6.97 3.26 3.67 0 6.56-1.9 6.56-5.37 0-2.62-1.7-3.91-4.73-5.13l-1.63-.68c-1.22-.48-1.77-.82-1.77-1.5 0-.82.71-1.19 1.8-1.19 1.36 0 2.69.58 3.77 1.6l2.31-2.82c-1.53-1.7-3.6-2.55-6.05-2.55Zm-15.54 0c-3.57 0-6.19 1.84-6.19 5.07 0 2.65 1.73 3.98 4.59 5.13l1.8.75c1.02.44 1.73.75 1.73 1.53 0 .95-.99 1.39-2.14 1.39-1.8 0-3.37-.88-4.73-2.28l-2.31 2.79c1.5 1.97 3.98 3.26 6.97 3.26 3.67 0 6.56-1.9 6.56-5.37 0-2.62-1.7-3.91-4.73-5.13l-1.63-.68c-1.22-.48-1.77-.82-1.77-1.5 0-.82.71-1.19 1.8-1.19 1.36 0 2.69.58 3.77 1.6l2.31-2.82c-1.53-1.7-3.6-2.55-6.05-2.55Zm-18.39 4.22c2.48 0 4.35 1.97 4.35 4.62s-1.87 4.56-4.35 4.56-4.35-1.9-4.35-4.56 1.8-4.62 4.35-4.62Zm0-4.19c-5.03 0-9.01 3.81-9.01 8.77s3.98 8.81 8.98 8.81 9.08-3.81 9.08-8.81-4.08-8.77-9.04-8.77Zm-12.14.17c-1.84 0-3.5.78-4.62 2.24v-2.04h-4.22v16.83h4.59v-8.4c0-3.03 1.87-4.39 4.52-4.39h1.22v-4.05c-.44-.14-.88-.2-1.5-.2Zm-19.61-.17c-5.03 0-9.01 3.81-9.01 8.77s3.98 8.84 9.01 8.84c3.33 0 5.92-1.67 7.31-4.18l-3.2-2.45c-.99 1.39-2.21 2.41-4.05 2.41-2.62 0-4.42-1.97-4.42-4.62s1.8-4.59 4.42-4.59c1.87 0 3.09 1.02 4.05 2.45l3.2-2.48c-1.39-2.52-3.94-4.15-7.31-4.15ZM46.3 193.83l21.23 7.22 7.31-7.38-7.4-7.3-21.14 7.46M71.15 160.42l-7.09 18.95 6.45 6.79 6.78-6.47-6.14-19.27M62.06 146.67 51 162.74l4.41 7.86 7.83-4.47-1.18-19.46M54.54 130.75l-13.46 13.24 2.77 8.31 8.28-2.8 2.41-18.75M50.63 115.27l-15.21 9.82.96 8.33 8.31-1.03 5.94-17.12M50.54 84.04l-16.66 3.33L31.85 95l7.61 1.99 11.08-12.95M48.64 98.59l-15.98 7.07-.32 8.11 8.08.29 8.22-15.47M55.09 68.07l-16.64.1-3.4 6.97 6.93 3.32 13.11-10.39M60.57 54.29l-15.45-2.9-4.41 5.81 5.83 4.31 14.03-7.22M69.61 41.72l-14.44-5.87-5.42 4.72 4.81 5.31 15.05-4.16M31.32 175.99l19.54 8.87 7.67-6.37-6.36-7.65-20.85 5.15M20.49 152.56l16.42 12.35 8.51-4.37-4.35-8.48-20.58.5M14.34 130.38 28 144.69l8.76-2.82-2.79-8.73-19.63-2.76M27.03 45.22l2.45 16.82 7.59 2.38 2.41-7.52-12.45-11.68M37.44 27.96l.73 16.25 6.98 3 3-6.93-10.71-12.32M50.35 14.36l-1.42 14.99 6 3.64 3.64-5.97-8.22-12.66M76.78 14.62l-14.01 5.54-.52 7 6.97.53 7.56-13.07M350.55 193.83l-21.23 7.22-7.31-7.38 7.4-7.3 21.14 7.46M325.7 160.42l7.09 18.95-6.45 6.79-6.78-6.47 6.14-19.27M334.79 146.67l11.06 16.07-4.41 7.86-7.83-4.47 1.18-19.46M342.31 130.75l13.46 13.24-2.77 8.31-8.28-2.8-2.41-18.75M346.22 115.27l15.21 9.82-.97 8.33-8.3-1.03-5.94-17.12M346.31 84.04l16.66 3.33L365 95l-7.61 1.99-11.08-12.95M348.21 98.59l15.98 7.07.32 8.11-8.08.29-8.22-15.47M341.76 68.07l16.64.1 3.4 6.97-6.93 3.32-13.11-10.39M336.28 54.29l15.45-2.9 4.41 5.81-5.83 4.31-14.03-7.22M327.24 41.72l14.44-5.87 5.42 4.72-4.81 5.31-15.05-4.16M365.53 175.99l-19.54 8.87-7.66-6.37 6.35-7.65 20.85 5.15M376.36 152.56l-16.42 12.35-8.5-4.37 4.34-8.48 20.58.5M382.51 130.38l-13.66 14.31-8.76-2.82 2.79-8.73 19.63-2.76M385.7 107.46l-11.44 16.11-9.08-1.53 1.5-9.05 19.02-5.53M378.33 65.14l-5.59 16.64-8.14 1.03-1.06-8.09 14.79-9.58M369.82 45.22l-2.44 16.82-7.6 2.38-2.41-7.52 12.45-11.68M359.41 27.96l-.73 16.25-6.98 3-3-6.93 10.71-12.32M346.51 14.36l1.41 14.99-6 3.64-3.64-5.97 8.23-12.66M320.07 14.62l14.01 5.54.52 7-6.97.53-7.56-13.07M109.93 138.49c0 3.98-3.19 7.11-7.17 7.11-3.95-.03-7.11-3.11-7.11-7.11s3.14-7.11 7.14-7.11 7.14 3.11 7.14 7.11Zm-12.07.03c0 2.88 2.07 5.1 4.9 5.1s4.96-2.24 4.96-5.1-2.13-5.15-4.93-5.15-4.96 2.24-4.93 5.15ZM116.12 128.58v3.11h3.42v1.93h-3.42v11.7h-2.16v-11.7H112v-1.93h1.96v-3.25c0-3.11 1.88-4.42 4.51-4.42.67 0 1.2.08 1.71.22v1.82c-.45-.06-.84-.08-1.2-.08-1.68 0-2.86.56-2.86 2.6Z" class="cls-1"/><path d="M126.03 124.02c.67 0 1.2.08 1.71.22v1.82c-.45-.06-.84-.08-1.2-.08-1.68 0-2.86.56-2.86 2.6v3.11h3.42v1.93h-3.42v11.7h-2.16v-11.7h-1.96v-1.93h1.96v-3.25c0-3.11 1.88-4.42 4.51-4.42Zm6.75 2.46c0 .9-.73 1.57-1.6 1.57s-1.62-.67-1.62-1.57.73-1.57 1.62-1.57 1.6.7 1.6 1.57Zm-2.69 5.21h2.16v13.64h-2.16v-13.64ZM148.68 134.35l-1.54 1.23c-1.01-1.34-2.3-2.21-4.06-2.21-2.86 0-4.96 2.27-4.96 5.12s2.1 5.15 4.96 5.15c1.74 0 3.02-.84 4.03-2.18l1.54 1.2c-1.2 1.79-3.16 2.97-5.6 2.97-3.98 0-7.14-3.14-7.14-7.14s3.16-7.11 7.14-7.11c2.46 0 4.42 1.18 5.63 2.97ZM154.93 126.48c0 .9-.73 1.57-1.6 1.57s-1.62-.67-1.62-1.57.73-1.57 1.62-1.57 1.6.7 1.6 1.57Zm-.54 18.85h-2.16v-13.64h2.16v13.64ZM169.26 136.92v8.4h-2.02v-1.76c-.98 1.32-2.58 2.07-4.59 2.07-2.74 0-4.76-1.46-4.76-3.84s1.93-3.81 4.9-3.81h4.31v-1.18c0-2.3-1.29-3.44-3.3-3.44-1.71 0-2.91.81-3.98 2.18l-1.43-1.18c1.29-2.07 3.36-3 5.54-3 3.11 0 5.32 1.88 5.32 5.54Zm-2.15 3.17v-.34h-4.06c-1.9 0-2.94.64-2.94 1.93 0 1.46 1.32 2.16 2.83 2.16 2.24 0 4.17-1.62 4.17-3.75ZM175.9 145.33h-2.16v-21h2.16v21ZM196.98 133.54l-1.32 1.34c-.9-.92-2.07-1.51-3.36-1.51s-2.27.59-2.27 1.71c0 .92.7 1.37 2.21 1.99l1.26.53c2.46 1.04 3.61 2.1 3.61 4.03 0 2.66-2.27 4-4.79 4s-4.23-1.2-5.32-2.66l1.37-1.43c1.12 1.18 2.27 2.1 3.92 2.1 1.43 0 2.6-.7 2.6-1.93s-1.01-1.62-2.38-2.18l-1.32-.56c-2.07-.87-3.39-1.82-3.39-3.78 0-2.46 2.1-3.81 4.59-3.81 1.96 0 3.5.84 4.56 2.16ZM212.97 139.17h-10.75c.28 2.72 2.3 4.48 4.98 4.48 1.71 0 3.05-.73 4.17-1.85l1.26 1.46c-1.37 1.46-3.22 2.38-5.46 2.38-4.12 0-7.22-3.11-7.22-7.11s3.05-7.14 6.97-7.14c3.5 0 6.22 2.52 6.22 6.16a7.7 7.7 0 0 1-.17 1.62Zm-10.67-1.91h8.62c-.03-2.52-1.88-3.92-4.06-3.92-2.3 0-4.12 1.57-4.56 3.92ZM218.99 145.33h-2.16v-21h2.16v21ZM235.68 139.17h-10.75c.28 2.72 2.3 4.48 4.98 4.48 1.71 0 3.05-.73 4.17-1.85l1.26 1.46c-1.37 1.46-3.22 2.38-5.46 2.38-4.12 0-7.22-3.11-7.22-7.11s3.05-7.14 6.97-7.14c3.5 0 6.22 2.52 6.22 6.16a7.7 7.7 0 0 1-.17 1.62Zm-10.67-1.91h8.62c-.03-2.52-1.88-3.92-4.06-3.92-2.3 0-4.12 1.57-4.56 3.92ZM251.33 134.35l-1.54 1.23c-1.01-1.34-2.3-2.21-4.06-2.21-2.86 0-4.96 2.27-4.96 5.12s2.1 5.15 4.96 5.15c1.74 0 3.02-.84 4.03-2.18l1.54 1.2c-1.2 1.79-3.16 2.97-5.6 2.97-3.98 0-7.14-3.14-7.14-7.14s3.16-7.11 7.14-7.11c2.46 0 4.42 1.18 5.63 2.97ZM262.33 143.5v1.82c-.7.17-1.4.31-2.27.31-2.69 0-4.59-1.32-4.59-4.42v-7.59h-2.3v-1.93h2.3v-3.72h2.16v3.72h4.26v1.93h-4.26v7.45c0 2.04 1.18 2.6 2.88 2.6.53 0 1.12-.06 1.82-.17ZM268.16 126.48c0 .9-.73 1.57-1.6 1.57s-1.62-.67-1.62-1.57.73-1.57 1.62-1.57 1.6.7 1.6 1.57Zm-.53 18.85h-2.16v-13.64h2.16v13.64ZM285.57 138.49c0 3.98-3.19 7.11-7.17 7.11-3.95-.03-7.11-3.11-7.11-7.11s3.14-7.11 7.14-7.11 7.14 3.11 7.14 7.11Zm-12.06.03c0 2.88 2.07 5.1 4.9 5.1s4.96-2.24 4.96-5.1-2.13-5.15-4.93-5.15-4.96 2.24-4.93 5.15ZM300.55 136.76v8.57h-2.16v-8.32c0-2.16-1.29-3.64-3.39-3.64s-3.58 1.51-3.58 3.64v8.32h-2.16v-13.64h2.02v1.48c.95-1.12 2.44-1.79 4.2-1.79 3.22 0 5.07 2.21 5.07 5.38ZM177.22 182.27v3.8l-16.07.03v-.96l7.79-8.45c2.05-2.21 3.07-3.73 3.07-5.48 0-1.85-1.16-3.2-3.04-3.2s-3.07 1.35-3.07 3.33c0 .4.07.99.17 1.58h-4.49a7.42 7.42 0 0 1-.23-1.85c0-3.6 2.9-7.2 7.69-7.2 4.36 0 7.56 2.97 7.56 6.96 0 3.2-2.08 5.71-4.69 8.45l-2.81 2.97h8.12ZM196.89 175c0 6.27-2.74 11.45-8.61 11.45s-8.65-5.18-8.65-11.45 2.77-11.12 8.65-11.12 8.61 4.79 8.61 11.12Zm-12.67.04c0 4.55 1.22 7.29 4.06 7.29s4.03-2.74 4.03-7.29-1.19-7.03-4.03-7.03-4.06 2.51-4.06 7.03ZM215.3 182.27v3.8l-16.07.03v-.96l7.79-8.45c2.05-2.21 3.07-3.73 3.07-5.48 0-1.85-1.16-3.2-3.04-3.2s-3.07 1.35-3.07 3.33c0 .4.07.99.17 1.58h-4.49a7.42 7.42 0 0 1-.23-1.85c0-3.6 2.9-7.2 7.69-7.2 4.36 0 7.56 2.97 7.56 6.96 0 3.2-2.08 5.71-4.69 8.45l-2.81 2.97h8.12ZM234.15 178.9c0 4.52-3.73 7.56-8.35 7.56-3.83 0-6.67-2.11-8.09-4.95l3.1-2.18c1.22 1.88 2.64 3 4.85 3s3.89-1.22 3.89-3.37-1.55-3.14-4.46-3.14h-5.08v-11.55h12.61v4.03h-8.32v3.96c.79-.17 1.62-.26 2.48-.26 3.63 0 7.36 2.34 7.36 6.9Z" class="cls-1"/></svg>