<svg xmlns="http://www.w3.org/2000/svg" width="1280" height="135.787"><path d="M901.566 240.98c0-122.929-102.605-225.93-230.437-224.27-70.645 0-142.977 33.224-186.703 96.349l-47.102 66.457C415.461 83.156 331.355 16.711 223.711 16.711 99.238 16.71 0 116.379 0 239.32v556.504c0 122.934 97.559 222.606 223.711 222.606 109.332 0 195.113-71.434 215.297-169.446l53.824 73.094c43.734 59.805 114.379 94.692 185.023 94.692 121.106 0 223.711-94.692 223.711-217.622 0-46.511-13.457-93.027-42.05-131.234L751.863 520.063l107.653-147.852c28.593-39.863 42.05-84.719 42.05-131.231zm309.704 777.45c134.96 0 242.92-109.825 241.23-239.617v-522.5c0-129.797-106.27-239.622-242.92-239.622-133.27 0-241.228 108.164-241.228 239.622v522.5c0 129.792 107.958 239.617 242.918 239.617zm1176.21-726.426c0-160.879-134.45-275.313-350.22-275.313-288.8 0-501.26 213.946-501.26 500.872 0 286.917 212.46 500.867 501.26 500.867 215.77 0 350.22-114.438 350.22-275.313 0-107.801-53.11-180.773-159.34-225.554 106.23-44.786 159.34-119.415 159.34-225.559zm985.04-51.024c0-122.929-102.79-225.93-229.18-224.27-70.78 0-143.24 33.224-187.06 96.349l-47.18 66.457c-21.91-96.36-106.17-162.805-214.02-162.805-124.7 0-224.12 99.668-224.12 222.609v556.504c0 122.934 97.74 222.606 224.12 222.606 109.54 0 195.49-71.434 215.71-169.446l52.24 73.094c43.81 59.805 114.59 94.692 185.36 94.692 121.34 0 224.13-94.692 224.13-217.622 0-46.511-13.48-93.027-42.13-131.234l-107.85-147.851 107.85-147.852c28.65-39.863 42.13-84.719 42.13-131.231zM4224 324.953C4224 125.629 4070.08-.012 3810.76-.012c-264.34 0-388.15 90.465-388.15 237.867 0 102.176 78.63 167.5 190.72 167.5h1.68l-60.23 55.282c-75.29 68.679-127.15 137.355-127.15 237.859 0 195.981 143.88 319.934 389.82 319.934 250.96 0 369.74-88.778 369.74-237.86 0-88.773-60.23-149.078-150.57-162.48l61.9-55.274C4173.81 495.813 4224 425.461 4224 324.953Zm680.79-99.57c0-123.543-105.38-225.395-240.86-225.395-130.48 0-235.86 101.852-235.86 225.395v345.601C4316 577.664 4224 669.492 4224 786.359c0 121.883 97.02 215.371 215.78 215.371h453.31c118.77 0 215.78-95.16 215.78-215.371 0-116.867-92-210.363-204.08-215.375V225.383Zm586.73-34.551c-56.95-117.754-137.36-174.14-234.53-174.14-175.91 0-303.23 160.871-224.49 341.652l206.06 477.652c51.94 117.754 127.32 182.434 254.64 182.434 129 0 204.39-64.68 254.65-182.434l206.06-477.652c77.06-180.781-48.59-341.653-226.17-341.653-98.83 0-179.25 56.387-236.22 174.141zm552.31 562.137c0 163.617 87.49 248.761 243.96 248.761h291.08c176.66 0 314.63-133.562 314.63-305.523 0-93.496-38.71-170.301-102.64-218.715l87.49-138.574c23.55-36.727 33.65-76.805 33.65-118.543C6912 96.828 6814.41-.012 6691.59-.012c-75.71 0-149.74 38.403-191.8 108.532l-23.56 41.738C6447.63 61.769 6368.55-.012 6267.6-.012c-122.82 0-223.77 103.52-223.77 228.735v524.246Zm1566.05-527.586c0-123.543-103.51-225.395-242.09-225.395-130.22 0-235.41 101.852-235.41 225.395v345.601c-111.86 6.68-203.69 98.508-203.69 215.375 0 121.883 96.84 215.371 215.38 215.371h454.12c118.54 0 215.37-95.16 215.37-215.371 0-116.867-91.82-210.363-203.68-215.375V225.383Zm1055.16-33.438c0-107.754-86.26-193.617-190.78-191.925h-348.38c-159.27 0-245.53 84.171-245.53 249.164v503.382c0 163.309 86.26 249.164 245.53 249.164h348.38c104.52 0 190.78-85.855 190.78-193.605 0-97.648-59.72-168.355-145.99-185.191 39.82-25.254 61.39-67.34 61.39-122.895 0-55.562-23.23-97.652-61.39-122.906 84.61-16.836 145.99-89.231 145.99-185.188zm66.79 561.024c0 163.617 85.81 248.761 243.96 248.761h291.08c176.66 0 314.62-133.562 314.62-305.523 0-93.496-38.7-170.301-102.63-218.715l87.49-138.574c23.55-36.727 33.65-76.805 33.65-118.543C9600 96.828 9502.41-.012 9379.59-.012c-75.71 0-149.75 38.403-191.81 108.532l-23.55 41.738C9135.63 61.769 9056.55-.012 8955.6-.012c-122.83 0-223.77 103.52-223.77 228.735v524.246" style="fill:#fff;fill-opacity:1;fill-rule:nonzero;stroke:none" transform="matrix(.13333 0 0 -.13333 0 135.787)"/></svg>