<svg id="Ebene_1" data-name="Ebene 1" xmlns="http://www.w3.org/2000/svg" version="1.1" viewBox="0 0 1017 61"><defs><style>.cls-1{fill:#f4f9f8;stroke-width:0}</style></defs><path class="cls-1" d="M24.47 1.53V.59h10.49v.94c-2.39.6-2.3 1.79.77 9.04l5.2 12.53 4.43-12.28c1.96-5.46 1.96-8.7-.68-9.29V.59h8.78v.94c-2.13.6-4.09 1.88-6.74 9.21l-5.03 14.07 12.19 29.33 15.6-43.4c1.96-5.37 1.79-8.61-1.19-9.21V.59h9.29v.94c-2.13.6-4.09 1.88-6.74 9.21L53.02 60.28h-1.53L38.96 29.93 26.6 60.28h-1.53L6.22 10.74C3.41 3.41 1.71 2.13 0 1.53V.59h10.74v.94c-2.39.6-2.39 1.88.43 9.21L27.71 54.4l10.57-26.09-7.33-17.74c-2.98-7.25-4.77-8.44-6.48-9.04ZM80.74 59.34c2.39-.6 3.41-2.05 3.41-9.89V11.43c0-7.84-1.02-9.29-3.41-9.89V.6h11.6v.94c-2.39.6-3.41 2.05-3.41 9.89v38.03c0 7.84 1.02 9.29 3.41 9.89v.94h-11.6v-.94ZM134.8 48.17c-4.77-11-5.8-18.93-19.01-18.93h-5.88v20.21c0 7.84 1.02 9.29 3.41 9.89v.94h-11.6v-.94c2.39-.6 3.41-2.05 3.41-9.89V11.43c0-7.84-1.02-9.29-3.41-9.89V.6h15.69c15.86 0 22.34 4.69 22.34 12.96s-6.22 14.41-17.14 15.52c11.43 1.62 12.79 8.19 16.54 17.74 3.58 9.04 6.05 12.79 8.78 12.79.51 0 .94-.08 1.45-.17v.85c-.6.26-2.3.6-4.18.6-6.14 0-7.08-5.03-10.4-12.71Zm-.34-32.74c0-8.36-5.46-13.73-20.29-13.73-1.36 0-2.73.08-4.26.17v26.18h9.04c9.89 0 15.52-4.6 15.52-12.62ZM153.3 59.34c2.39-.6 3.41-2.05 3.41-9.89V11.43c0-7.84-1.02-9.29-3.41-9.89V.6h39.14l.85 8.44-.77.17c-2.56-5.46-5.8-7.5-13.47-7.5h-17.56v25.32l13.73.09c8.87.09 10.74-1.88 11.43-5.03h.94v11.34h-.94c-.68-3.15-2.56-5.12-11.43-5.2l-13.73-.09v21.32c0 7.84 1.02 9.29 3.41 9.89v.94h-11.6v-.94ZM219.55 60.28v-.94c2.39-.6 3.41-2.05 3.41-9.89V11.43c0-7.84-1.02-9.29-3.41-9.89V.6h19.44c22.17 0 32.74 13.56 32.83 28.82.08 17.39-12.02 30.87-30.78 30.87h-21.49Zm46.9-28.31c0-16.54-11.25-30.27-30.35-30.27h-8.36v51.16c0 4.01.85 6.22 5.54 6.22h8.02c16.29 0 25.15-9.8 25.15-27.11ZM280.77 60.28v-.94c2.39-.6 3.41-2.05 3.41-9.89V11.43c0-7.84-1.02-9.29-3.41-9.89V.6h38.28l1.02 10.15-.77.17c-2.64-6.65-7.33-9.21-15.01-9.21h-15.35v26.26h13.98c8.87 0 10.74-1.96 11.43-5.12h.94v11.34h-.94c-.68-3.15-2.56-5.12-11.43-5.12h-13.98v26.69c0 2.22 1.19 3.41 3.41 3.41h14.24c7.67 0 12.19-2.05 15.01-9.21l.77.17-.77 10.15h-40.84ZM330.48 59.34c2.39-.6 3.41-2.05 3.41-9.89V11.43c0-7.84-1.02-9.29-3.41-9.89V.6h11.6v.94c-2.39.6-3.41 2.05-3.41 9.89v38.03c0 7.84 1.02 9.29 3.41 9.89v.94h-11.6v-.94ZM356.31 6.82v41.1c0 8.87 1.96 10.74 5.12 11.43v.94h-9.81v-.94c2.39-.6 3.41-2.05 3.41-9.89V11.43c0-7.84-1.36-9.29-4.43-9.89V.6h7.08l38.71 51.93V12.96c0-8.87-1.96-10.74-5.12-11.43V.59h9.81v.94c-2.39.6-3.41 2.05-3.41 9.89v49.54h-1.11L356.31 6.82ZM428.35 59.34c2.39-.6 3.41-2.05 3.41-9.89V11.43c0-7.84-1.02-9.29-3.41-9.89V.6h11.6v.94c-2.39.6-3.41 2.05-3.41 9.89v16.63h35.47V11.43c0-7.84-1.02-9.29-3.41-9.89V.6h11.6v.94c-2.39.6-3.41 2.05-3.41 9.89v38.03c0 7.84 1.02 9.29 3.41 9.89v.94h-11.6v-.94c2.39-.6 3.41-2.05 3.41-9.89V29.25h-35.47v20.21c0 7.84 1.02 9.29 3.41 9.89v.94h-11.6v-.94ZM489.57 60.28v-.94c2.39-.6 3.41-2.05 3.41-9.89V11.43c0-7.84-1.02-9.29-3.41-9.89V.6h38.28l1.02 10.15-.77.17c-2.64-6.65-7.33-9.21-15.01-9.21h-15.35v26.26h13.98c8.87 0 10.74-1.96 11.43-5.12h.94v11.34h-.94c-.68-3.15-2.56-5.12-11.43-5.12h-13.98v26.69c0 2.22 1.19 3.41 3.41 3.41h14.24c7.67 0 12.19-2.05 15.01-9.21l.77.17-.77 10.15h-40.84ZM572.36 48.17c-4.78-11-5.8-18.93-19.01-18.93h-5.88v20.21c0 7.84 1.02 9.29 3.41 9.89v.94h-11.6v-.94c2.39-.6 3.41-2.05 3.41-9.89V11.43c0-7.84-1.02-9.29-3.41-9.89V.6h15.69c15.86 0 22.34 4.69 22.34 12.96s-6.22 14.41-17.14 15.52c11.43 1.62 12.79 8.19 16.54 17.74 3.58 9.04 6.05 12.79 8.78 12.79.51 0 .94-.08 1.45-.17v.85c-.6.26-2.3.6-4.18.6-6.14 0-7.08-5.03-10.4-12.71Zm-.34-32.74c0-8.36-5.46-13.73-20.29-13.73-1.36 0-2.73.08-4.26.17v26.18h9.04c9.89 0 15.52-4.6 15.52-12.62ZM588.39 59.43l35.73-57.72h-18.5c-8.61 0-11.85 2.98-14.67 9.46h-.68L591.29.6h38.03v.85l-35.81 57.73h17.39c12.7 0 14.92-3.15 18.25-11.34l.68.08-1.54 12.36h-39.9v-.85ZM655.07 59.34c2.39-.6 3.41-2.05 3.41-9.89V11.43c0-7.84-1.02-9.29-3.41-9.89V.6h11.6v.94c-2.39.6-3.41 2.05-3.41 9.89v38.03c0 7.84 1.02 9.29 3.41 9.89v.94h-11.6v-.94ZM680.9 6.82v41.1c0 8.87 1.96 10.74 5.12 11.43v.94h-9.81v-.94c2.39-.6 3.41-2.05 3.41-9.89V11.43c0-7.84-1.36-9.29-4.43-9.89V.6h7.08l38.71 51.93V12.96c0-8.87-1.96-10.74-5.12-11.43V.59h9.81v.94c-2.39.6-3.41 2.05-3.41 9.89v49.54h-1.11L680.9 6.82ZM733.93 55.08l-.6-10.91.85-.08c2.9 8.19 8.19 15.77 20.72 15.77 7.76 0 14.07-5.12 14.07-11.94 0-8.7-9.81-12.7-17.39-15.69-11.51-4.52-16.8-8.7-16.8-16.8 0-9.38 7.93-15.43 19.53-15.43 9.38 0 14.75 2.9 16.88 4.26l.34 8.61-.68.17c-2.81-5.88-7.42-11.77-18.76-11.77-6.99 0-13.39 3.92-13.39 11.85 0 8.36 8.95 11.85 16.8 15.09 10.15 4.18 17.57 7.93 17.57 16.88 0 9.46-8.95 16.03-19.36 16.03-9.12 0-16.2-3.5-19.78-6.05ZM800.01 59.34c2.39-.6 3.41-2.05 3.41-9.89V12.96c0-8.87-1.79-10.74-4.6-11.43V.59h7.59l23.62 38.63 21.32-34.7.08-.17 2.3-3.75h6.99v.94c-2.81.68-4.6 2.56-4.6 11.43v36.49c0 7.84 1.02 9.29 3.41 9.89v.94h-11.6v-.94c2.39-.6 3.41-2.05 3.41-9.89V6.91l-22.85 37.18h-1.19L804.96 7.42v40.5c0 8.87 1.96 10.74 5.12 11.43v.94h-10.06v-.94ZM870.1 60.28v-.94c2.39-.6 3.41-2.05 3.41-9.89V11.43c0-7.84-1.02-9.29-3.41-9.89V.6h38.29l1.02 10.15-.77.17c-2.64-6.65-7.33-9.21-15.01-9.21h-15.35v26.26h13.98c8.87 0 10.74-1.96 11.43-5.12h.94v11.34h-.94c-.68-3.15-2.56-5.12-11.43-5.12h-13.98v26.69c0 2.22 1.19 3.41 3.41 3.41h14.24c7.67 0 12.19-2.05 15.01-9.21l.77.17-.77 10.15H870.1ZM919.8 60.28v-.94c2.39-.6 3.41-2.05 3.41-9.89V11.43c0-7.84-1.02-9.29-3.41-9.89V.6h38.28l1.02 10.15-.77.17c-2.64-6.65-7.33-9.21-15.01-9.21h-15.35v26.26h13.98c8.87 0 10.74-1.96 11.43-5.12h.94v11.34h-.94c-.68-3.15-2.56-5.12-11.43-5.12h-13.98v26.69c0 2.22 1.19 3.41 3.41 3.41h14.24c7.67 0 12.19-2.05 15.01-9.21l.77.17-.77 10.15h-40.84ZM1002.59 48.17c-4.77-11-5.8-18.93-19.01-18.93h-5.88v20.21c0 7.84 1.02 9.29 3.41 9.89v.94h-11.6v-.94c2.39-.6 3.41-2.05 3.41-9.89V11.43c0-7.84-1.02-9.29-3.41-9.89V.6h15.69c15.86 0 22.34 4.69 22.34 12.96s-6.22 14.41-17.14 15.52c11.43 1.62 12.79 8.19 16.54 17.74 3.58 9.04 6.05 12.79 8.78 12.79.51 0 .94-.08 1.45-.17v.85c-.6.26-2.3.6-4.18.6-6.14 0-7.08-5.03-10.4-12.71Zm-.34-32.74c0-8.36-5.46-13.73-20.29-13.73-1.36 0-2.73.08-4.26.17v26.18h9.04c9.89 0 15.52-4.6 15.52-12.62Z"/></svg>
