<svg width="465.36" height="196.28" xmlns="http://www.w3.org/2000/svg"><path d="M1765 1322h-18.33v-264.03H1765V1322M1835.7 1175.76c0 33.55 21.41 61.25 57.35 61.25 32.09 0 48.54-22.63 48.54-65.53v-113.5h16.84v120.13c0 54.21-28.71 75.27-61.18 75.27-27.53 0-50.85-14.83-61.92-39v34.32h-16.83v-190.72h17.2v117.78M2016.09 1057.98h16.84v175.12h44.34v15.59h-44.34v73.33h-16.84v-73.33h-30.94v-15.59h30.94v-175.12M2162.11 1237c35.54 0 53.53-29.25 53.9-70.21h-116.6c3.44 34.71 26.77 70.21 62.7 70.21zm.38-182.91c29.05 0 51.22 11.7 68.03 24.17l-7.62 12.48c-14.92-10.13-34.79-20.67-59.26-20.67-36.32 0-65.37 24.96-65.37 78v3.91h135.69v6.24c0 55.38-24.46 94.38-71.1 94.38-51.21 0-81.79-52.27-81.79-102.58 0-66.68 38.22-95.93 81.42-95.93M2293.19 1155.48c0 45.24 21.41 76.06 59.26 79.56 0 6.25 0 11.7-.39 17.94-26.39-2.33-47.41-18.72-59.25-49.14v44.85h-16.82v-190.71h17.2v97.5M2525.58 1057.98v120.13c0 54.21-28.67 75.27-61.17 75.27-27.5 0-50.84-14.81-61.92-38.99v34.31h-16.83v-190.72h17.2v117.79c0 33.54 21.42 61.23 57.36 61.23 32.1 0 48.53-22.61 48.53-65.51v-113.51h16.83M2680.75 1128.57c0-36.27-30.99-58.5-62.29-58.5-20.29 0-39.78 11.69-39.78 36.27 0 30.03 23.7 49.54 102.07 51.09zm-51.21 124.42c-19.13 0-43.59-7.81-56.59-13.65l4.62-14.43c12.19 5.85 35.51 12.09 51.57 12.09 30.57 0 48.53-10.54 51.61-65.91-88.3-1.56-119.65-26.53-119.65-65.91 0-31.2 22.17-50.71 55.04-50.71 26.01 0 53.15 15.6 64.99 37.83v-34.32h16.43v110.75c0 69.82-28.67 84.26-68.02 84.26M2754.47 1057.98h16.85v175.12h44.34v15.59h-44.34v73.33h-16.85v-73.33h-30.95v-15.59h30.95v-175.12M2843.53 1057.99h17.2v190.71h-17.2v-190.71M2852.33 1326.3c-7.29 0-12.24-5.85-12.24-12.86 0-6.63 4.95-12.48 12.24-12.48 7.26 0 12.24 5.85 12.24 12.48 0 7.01-4.98 12.86-12.24 12.86M2983.8 1068.51c-45.12 0-68.04 42.12-68.04 84.25 0 46.4 24.07 85.4 67.66 85.4 44.73 0 68.05-42.51 68.05-85.02 0-47.19-25.62-84.63-67.67-84.63zm0 184.87c-53.11 0-85.64-47.59-85.64-100.62 0-48.77 26.37-99.08 85.26-99.08 54.67 0 85.63 47.98 85.63 99.86 0 54.59-31.73 99.84-85.25 99.84M3188.64 1253.38c-27.52 0-50.84-14.83-61.91-39.01v34.33h-16.83v-190.71h17.2v117.77c0 33.55 21.42 61.24 57.35 61.24 32.09 0 48.56-22.63 48.56-65.53v-113.48h16.81v120.12c0 54.22-28.69 75.27-61.18 75.27M3404.98 1157.43v-28.86c0-36.27-30.99-58.49-62.28-58.49-20.31 0-39.78 11.68-39.78 36.26 0 30.03 23.68 49.54 102.06 51.09zm-119.65-52.25c0-31.2 22.18-50.71 55.04-50.71 26 0 53.15 15.61 64.98 37.83v-34.32h16.45v110.75c0 69.82-28.67 84.26-68.02 84.26-19.14 0-43.59-7.8-56.59-13.65l4.6-14.43c12.19 5.85 35.52 12.09 51.58 12.09 30.59 0 48.53-10.54 51.61-65.91-88.28-1.56-119.65-26.52-119.65-65.91M3472.99 1057.99h17.21v294.46h-17.21v-294.46M1849.47 841.156c64.99 0 95.68-58.894 95.68-117.777 0-67.871-35.83-120.508-98.04-120.508-64.58 0-95.33 58.488-95.33 117.774 0 65.121 35.06 120.511 97.69 120.511zm-2.75-255.453c76 0 117.76 66.309 117.76 138.445 0 73.704-42.94 134.172-114.62 134.172-72.07 0-117.36-63.972-117.36-138.465 0-72.929 42.54-134.152 114.22-134.152M2162.62 618.848c-19.33-10.528-38.6-15.989-57.12-15.989-63.41 0-95.28 54.602-95.28 116.996 0 60.461 29.9 121.297 91.75 121.297 23.63 0 40.94-5.453 60.65-14.82l6.3 15.996c-22.85 10.91-44.1 15.988-64.97 15.988-76.82 0-113.82-69.808-113.82-138.461 0-71.371 38.18-133.769 114.2-133.769 20.49 0 44.88 6.629 64.59 17.957l-6.3 14.805M2227.25 837.262h38.96c80.72 0 111.46-52.649 111.46-112.321 0-72.148-37.42-118.582-103.97-118.582h-46.45zM2208.32 590h64.2c79.56 0 124.83 53.418 124.83 136.105 0 53.032-27.15 127.922-130.33 127.922h-58.7V590M1747.75 121.969h19.08v120.152h109.8v16.758h-109.8v110.359h121.74v16.793h-140.82V121.969M1995.97 132.5c-46.93 0-70.81 42.129-70.81 84.281 0 46.391 25.08 85.399 70.42 85.399 46.52 0 70.8-42.532 70.8-85.008 0-47.231-26.64-84.672-70.41-84.672zm0 184.871c-55.29 0-89.11-47.57-89.11-100.59 0-48.769 27.45-99.07 88.72-99.07 56.85 0 89.1 47.961 89.1 99.84 0 54.578-33.03 99.82-88.71 99.82M2255.71 196.469c0-48.758-27.84-63.969-55.67-63.969-27.46 0-56.5 16.031-56.5 63.969v116.242h-17.89V196.469c0-58.867 36.6-78.758 73.18-78.758 37.39 0 75.19 20.648 75.19 79.16v115.84h-18.31V196.469M2410.08 317.391c-28.64 0-52.92-14.809-64.46-39v34.32h-17.48V121.988h17.87v117.793c0 33.539 22.29 61.231 59.68 61.231 33.42 0 50.53-22.621 50.53-65.532V121.988h17.5v120.141c0 54.203-29.82 75.262-63.64 75.262M2656.31 201.16c0-40.148-29.83-67.871-63.65-67.871-34.19 0-58.47 30.043-58.47 74.883 0 51.867 29.41 92.828 79.95 92.828 15.93 0 30.24-3.121 42.17-6.629zm0 108.41c-14.34 4.711-31.46 7.039-44.94 7.039-61.28 0-95.48-53.05-95.48-107.269 0-61.629 35.42-91.629 73.57-91.629 27.07 0 54.54 14.41 67.24 42.879V122h17.13v294.461h-17.52V309.57M2838.1 192.582c0-36.281-32.24-58.5-64.84-58.5-21.08 0-41.37 11.68-41.37 36.258 0 30.058 24.67 49.519 106.21 51.101zm-53.3 124.438c-19.89 0-45.36-7.848-58.89-13.68l4.78-14.41c12.72 5.82 37.01 12.07 53.72 12.07 31.82 0 50.52-10.531 53.69-65.898-91.9-1.563-124.52-26.532-124.52-65.922 0-31.188 23.06-50.7 57.28-50.7 27.07 0 55.31 15.602 67.63 37.821V122h17.13v110.73c0 69.84-29.84 84.29-70.82 84.29M2933.57 386.031h-17.5v-73.32h-32.23v-15.609h32.23V121.969h17.5v175.133h46.13v15.609h-46.13v73.32M3019.09 390.32c-7.54 0-12.72-5.859-12.72-12.859 0-6.641 5.18-12.492 12.72-12.492 7.56 0 12.73 5.851 12.73 12.492 0 7-5.17 12.859-12.73 12.859M3009.95 121.988h17.91v190.723h-17.91V121.988M3157.13 132.5c-46.92 0-70.81 42.129-70.81 84.281 0 46.391 25.06 85.399 70.42 85.399 46.52 0 70.8-42.532 70.8-85.008 0-47.231-26.65-84.672-70.41-84.672zm0 184.871c-55.29 0-89.11-47.57-89.11-100.59 0-48.769 27.44-99.07 88.72-99.07 56.85 0 89.09 47.961 89.09 99.84 0 54.578-33.04 99.82-88.7 99.82M3371.54 317.391c-28.63 0-52.91-14.809-64.45-39v34.32h-17.49V121.988h17.88v117.793c0 33.539 22.3 61.231 59.68 61.231 33.43 0 50.52-22.621 50.52-65.532V121.988h17.52v120.141c0 54.203-29.83 75.262-63.66 75.262" style="fill:#244f9a;fill-opacity:1;fill-rule:nonzero;stroke:none" transform="matrix(.13333 0 0 -.13333 0 196.28)"/><path d="m1040.62 157.031-.01-.011h-.01c-90.998-47.938-194.553-75.2-304.537-75.2-108.262 0-210.305 26.461-300.247 73.032h-.003l-.02.007c-120.559 62.422-219.152 161.153-281.41 281.821v.011c-46.297 89.735-72.59 191.493-72.59 299.414 0 107.93 26.293 209.68 72.59 299.405v.03c62.238 120.6 160.781 219.32 281.293 281.76h.008c89.98 46.6 192.046 73.08 300.379 73.08 110.039 0 213.644-27.28 304.667-75.26v-.01h.01l.01-.01c118.57-62.54 215.52-160.38 277.01-279.59 46.29-89.725 72.59-191.475 72.59-299.405 0-107.921-26.3-209.679-72.59-299.414-61.51-119.261-158.51-217.14-277.14-279.66m277.14 1029.789c-37.11 47.83-79.98 90.91-127.55 128.28l-.01.01h-.01l-.01.01c-125.05 98.22-282.563 156.94-453.891 157h-.473c-170.05-.06-326.496-57.93-451.086-154.82h-.007a740.963 740.963 0 0 1-130.34-130.45v-.03C57.711 1062.26 0 905.941 0 736.055 0 566.172 57.71 409.84 154.383 285.262a740.161 740.161 0 0 1 130.293-130.403l.012-.007C409.32 57.91 565.801.039 735.883 0h.34c171.375.04 328.897 58.79 453.987 157.02h.01l.01.011a740.414 740.414 0 0 1 127.53 128.231c96.68 124.578 154.39 280.91 154.39 450.793 0 169.886-57.71 326.195-154.39 450.765" style="fill:#174e94;fill-opacity:1;fill-rule:nonzero;stroke:none" transform="matrix(.13333 0 0 -.13333 0 196.28)"/><path d="M791.227 157.039h-.059V1315.12l.094-.02c295.308-27.83 526.418-276.29 526.488-578.83l.01-.067.01-.078v-.051l-.01-.066-.01-.078c-.07-302.578-231.22-551.11-526.523-578.891M866.43 1224.91V247.18c216.4 57.59 376.07 254.351 376.07 488.875 0 234.531-159.67 431.305-376.07 488.855M715.855 154.859h-.019C404.035 165.52 154.508 421.48 154.383 735.852v.476c.125 314.302 249.625 570.212 561.394 580.962h.078v-75.33h-.011c-270.289-10.62-486.192-233.01-486.192-505.925 0-272.894 215.903-495.265 486.192-505.894h.011v-75.282" style="fill:#6d85bf;fill-opacity:1;fill-rule:nonzero;stroke:none" transform="matrix(.13333 0 0 -.13333 0 196.28)"/></svg>