<svg width="365.333" height="75.587" xmlns="http://www.w3.org/2000/svg"><path d="M263.762 555.078V396.875c0-5.598-2.524-12.312-6.16-16.238-1.403-1.399-3.082-2.793-1.957-4.199 1.117-1.399 2.519-.559 4.476.835 4.762 3.364 11.203 5.325 17.922 5.325h82.039v-24.637H234.645v197.117h29.117M390.039 501.32h26.879V357.961h-26.879zm-4.48 41.434c0 9.25 7.562 16.809 17.918 16.809 10.64 0 17.918-7.559 17.918-16.809 0-9.238-7.278-16.797-17.918-16.797-10.356 0-17.918 7.559-17.918 16.797M583.52 443.074v-85.113h-26.879v79.519c0 33.321-14.278 42.559-33.036 42.559-20.722 0-43.121-20.996-43.121-55.156v-66.922h-26.879V501.32h26.879v-9.523c0-5.879-.562-11.758-3.082-19.043-.839-2.52-1.957-5.313.278-5.879 1.679-.559 2.519 1.406 3.082 2.52 5.601 14.003 23.801 34.16 49.558 34.16 33.039 0 53.2-18.477 53.2-60.481M611.234 391.563 694.957 468c3.078 2.52 7.277 5.594 12.039 7.559 1.402.566 3.082 1.961 2.242 3.359-.84 1.406-2.242.84-4.203.281-4.758-1.394-9.801-2.519-13.16-2.519h-80.641v24.64h120.961v-33.605l-83.718-76.438c-3.082-2.515-7.282-5.32-12.039-7.554-1.403-.571-3.083-1.965-2.243-3.364.84-1.406 2.243-.836 4.203-.281 4.754 1.68 9.801 2.52 13.161 2.52h80.636v-24.637H611.234v33.602M111.996 97.96 48.438 186.72 29.12 164.602V97.961H0v197.117h29.121v-73.359c0-10.078-2.523-15.403-6.16-21.563-.844-1.394-1.68-2.519-.281-3.64 1.398-1.118 2.52 0 3.64 1.406l81.2 97.156h35.839l-76.441-87.363 80.918-109.754h-35.84M155.395 156.199v85.117h26.878v-79.519c0-33.32 14.286-42.559 33.043-42.559 20.719 0 43.122 20.996 43.122 55.157v66.921h26.878V97.961h-26.878v9.519c0 5.879.554 11.758 3.082 19.043.839 2.52 1.957 5.04-.286 5.879-1.679.559-2.519-1.406-3.082-2.519-6.714-13.445-23.797-34.16-49.554-34.16-33.039 0-53.203 18.476-53.203 60.476M348.883 299.563V97.961h-26.879v201.602h26.879M423.637 217.805v-75.039c0-16.243 3.359-21.289 19.043-21.289h21.281V97.961h-23.523c-29.68 0-43.68 10.918-43.68 42v77.844h-26.879v23.511h26.879v40.325h26.879v-40.325h40.324v-23.511h-40.324M489.434 156.199v85.117h26.879v-79.519c0-33.32 14.285-42.559 33.042-42.559 20.719 0 43.122 20.996 43.122 55.157v66.921h26.878V97.961h-26.878v9.519c0 5.879.554 11.758 3.082 19.043.836 2.52 1.957 5.04-.286 5.879-1.679.559-2.519-1.406-3.082-2.519-6.718-13.445-23.796-34.16-49.554-34.16-33.043 0-53.203 18.476-53.203 60.476M683.469 210.52c8.957 22.957 17.078 33.035 53.203 33.035v-27.434c-41.723 2.797-53.762-12.039-53.762-49.558V97.961h-26.879v143.355h26.879v-9.519c0-5.879-.562-10.359-3.082-18.762-.558-2.234-1.398-4.48.84-5.039 1.402-.281 2.242 1.125 2.801 2.524M2104.95 566.922c-54.38 0-96.03-29.613-123.81-63.113-14.53-17.977-24.66-35.688-31.87-50.461-2.44-4.973-6.46-10.977-13.03-8.332-6.58 2.644-3.88 9.66-2.08 14.019 7.25 17.363 13.86 39.59 14.9 61.856.1 3.218.17 6.617.17 10.168v28.863h-111.98V97.988h111.98v188.106c0 106.73 59.49 179.347 124.24 179.347 58.61 0 85.72-28.878 85.72-132.984V97.988h111.99v272.973c0 131.219-66.5 195.961-166.23 195.961M1358.08 0h432.49v97.996h-432.49V0M1154.07 196.203c-15.18 0-27.57-.332-38.3-1.609-21.65-2.836-34.34-8.75-47.19-19.059-4.32-3.465-9.94-7.195-14.4-2.187-4.55 5.109.4 10.886 3.9 14.054 13.88 12.547 20.23 20.879 23.56 44.649.56 5.269.86 11.168.86 17.906v310.18H970.551V98.207h348.879v97.996h-165.36M2518.7 195.973h221.34v-97.98H2334.1v118.984l227.48 209.086c16.61 14.878 36.85 25.609 54.35 32.589 4.37 1.75 11.24 4.953 8.63 12.028-2.43 6.597-9.24 5.004-14.49 3.254-15.76-5.25-32.75-12.008-54.61-12.008H2334.1v98h405.94V440.941l-227.46-209.105c-16.61-14.859-36.86-25.59-54.35-32.59-4.38-1.75-11.24-4.953-8.63-12.023 2.42-6.598 9.24-4.989 14.49-3.254 15.76 5.25 32.73 12.004 54.61 12.004" style="fill:#231f20;fill-opacity:1;fill-rule:nonzero;stroke:none" transform="matrix(.13333 0 0 -.13333 0 75.587)"/></svg>