<svg width="468.707" height="176" xmlns="http://www.w3.org/2000/svg"><defs><clipPath clipPathUnits="userSpaceOnUse" id="a"><path d="M2195 0v1320h1320V0Z"/></clipPath></defs><g clip-path="url(#a)" transform="matrix(.13333 0 0 -.13333 0 176)"><path d="M2855.27.012c364.5 0 659.99 295.476 659.99 659.992 0 364.506-295.49 660.006-659.99 660.006-364.52 0-660.01-295.5-660.01-660.006 0-364.516 295.49-659.992 660.01-659.992" style="fill:#ee262f;fill-opacity:1;fill-rule:nonzero;stroke:none"/><path d="M3203.26 428.141h-19.17V302.719h19.17v43.027c0 16.719 9.41 24.031 19.34 24.031 9.58 0 16.37-5.566 16.37-16.898v-50.16h19.16v56.082c0 17.426-11.67 27.531-28.91 27.531-13.07 0-20.73-6.973-25.96-14.109zm-117.41-84.137c0-25.613 17.77-43.555 42.68-43.555 16.21 0 25.43 7.321 31.71 12.723l-9.06 12.539c-4.36-2.957-10.98-8.359-20.9-8.359-13.77 0-25.61 10.093-25.61 26.652 0 15.848 11.67 25.43 24.04 25.43 9.93 0 15.68-4.004 19.68-6.098l8.53 13.59c-6.09 4.176-15.16 9.574-28.74 9.574-25.95 0-42.33-19.16-42.33-42.496m-26.48 40.238h-19.33v-81.523h19.33zm-22.47 27.524c0-7.668 5.76-12.895 12.72-12.895 6.79 0 12.89 5.227 12.89 12.895 0 7.488-6.1 12.711-12.89 12.711-6.96 0-12.72-5.223-12.72-12.711m-81.69-59.754c2.26 11.851 9.76 20.031 21.07 20.031 12.89 0 18.82-9.578 19.34-20.031zm-18.47-7.832c0-25.442 16.9-43.731 42.33-43.731 15.85 0 26.13 6.973 33.1 12.031l-7.31 12.7c-5.58-3.832-12.37-8.532-23.87-8.532-14.98 0-24.04 9.231-26.13 21.774h58.36c0 .527.17 5.402.17 5.922 0 21.25-10.8 42.156-36.93 42.156-24.04 0-39.72-18.113-39.72-42.32m-45.98 40.062h-19.35v-81.523h19.35v42.324c0 13.937 9.4 22.996 20.2 22.996 2.96 0 6.28-.871 8.71-1.219l2.79 17.594c-2.96 1.047-5.92 1.399-9.24 1.399-10.96 0-17.41-7.5-22.46-17.254zm-73.86 0h-19.33v-81.523h19.33v42.324c0 13.937 9.41 22.996 20.2 22.996 2.96 0 6.27-.871 8.71-1.219l2.79 17.594c-2.96 1.047-5.92 1.399-9.23 1.399-10.98 0-17.42-7.5-22.47-17.254zm-104.17-32.23c2.27 11.851 9.76 20.031 21.08 20.031 12.89 0 18.81-9.578 19.33-20.031zm-18.46-7.832c0-25.442 16.89-43.731 42.32-43.731 15.85 0 26.13 6.973 33.11 12.031l-7.33 12.7c-5.56-3.832-12.35-8.532-23.86-8.532-14.98 0-24.03 9.231-26.13 21.774h58.36c0 .527.18 5.402.18 5.922 0 21.25-10.81 42.156-36.94 42.156-24.04 0-39.71-18.113-39.71-42.32m-69.34 40.062h-16.54v-15.855h16.54v-36.059c0-17.937 10.98-31.879 31.18-31.879 11.33 0 19.34 4.879 24.74 8.531l-6.79 13.422c-3.49-2.093-8.53-4.882-14.98-4.882-9.24 0-15.33 5.234-15.33 18.117v32.75h30.83v15.855h-30.83v29.61h-18.82zm-86.75-58.183-7.83-13.77c8.53-5.738 20.03-11.84 33.79-11.84 18.99 0 30.48 10.621 30.48 25.61 0 13.238-9.92 18.632-22.12 23.168l-9.75 3.832c-8.02 3.129-10.46 5.394-10.46 10.277 0 5.051 4.89 8.187 10.98 8.187 8.19 0 15.68-3.835 20.38-6.613l7.15 12.535c-7.67 5.231-15.69 9.055-28.4 9.055-16.56 0-28.22-10.273-28.22-23.516 0-13.41 8.01-19.679 20.03-24.382l9.06-3.481c8.53-3.312 13.07-5.058 13.07-10.808 0-5.743-4.54-8.543-12.37-8.543-10.46 0-19.34 6.113-25.79 10.289m-90.75 17.414c0 14.113 7.83 26.652 22.99 26.652 15.16 0 22.83-12.539 22.83-26.652 0-13.93-7.67-26.473-22.83-26.473-15.16 0-22.99 12.543-22.99 26.473m-18.47 0c0-24.383 16.03-43.371 41.46-43.371 25.44 0 41.63 18.988 41.63 43.371 0 24.386-16.19 43.386-41.63 43.386-25.43 0-41.46-19-41.46-43.386m73 68.113c0 7.316-5.93 12.543-12.55 12.543-6.8 0-12.55-5.227-12.55-12.543 0-7.488 5.75-12.535 12.55-12.535 6.62 0 12.55 5.047 12.55 12.535m-50.53-12.535c6.8 0 12.72 5.047 12.72 12.535 0 7.316-5.92 12.543-12.72 12.543-6.78 0-12.53-5.227-12.53-12.543 0-7.488 5.75-12.535 12.53-12.535m537.67 244.996 15.72 45.937c5.24 15.731 15.41 32.993 40.39 32.993 18.81 0 28.68-9.243 32.07-21.887zm-206.58 42.242c0-4.004-.92-8.016-2.16-12.027l-28.99-83.86c-4.3-12.652-16.95-24.976-34.84-24.976-20.96 0-37.61 16.648-37.61 36.687 0 4.012.62 8.016 2.16 12.34l28.98 83.86c4.94 14.179 18.5 24.664 34.84 24.664 20.97 0 37.62-16.957 37.62-36.688m-299.69 0c0-4.004-.93-8.016-2.16-12.027l-28.98-83.86c-4.32-12.652-16.96-24.976-34.84-24.976-20.97 0-37.62 16.648-37.62 36.687 0 4.012.61 8.016 2.16 12.34l28.98 83.86c4.93 14.179 18.51 24.664 34.84 24.664 20.97 0 37.62-16.957 37.62-36.688M3342.09 591c0 4.313 1.23 8.637 3.08 12.027l49.95 82.325c1.85 2.777 3.08 6.781 3.08 10.785 0 11.41-8.63 20.351-21.58 20.351-15.42 0-26.21 11.098-26.21 26.512 0 11.727-9.25 20.66-20.97 20.66-3.09 0-7.39-.613-12.03-3.695l-254.36-165.266c-36.07-23.429-50.87-29.597-62.9-29.597-13.87 0-24.05 10.484-24.05 21.582l130.11 84.48c10.18 6.481 14.19 11.106 14.49 25.594 0 37.621-36.06 66.902-71.84 66.902-26.2 0-43.16-10.168-59.81-20.965l-125.8-81.394c-6.47-4.629-17.57-12.949-27.75-12.949-6.17 0-12.95 2.461-17.57 5.55l2.16 6.473c3.08 8.941 4.63 17.883 4.63 26.211 0 42.855-36.7 77.074-79.24 77.074-4.63 0-8.95-.305-13.26-1.226L2775.08 887c.92 2.77 1.23 5.543 1.23 8.008 0 10.789-8.02 20.351-21.58 20.351-8.63 0-16.34-5.859-19.43-14.8l-57.04-165.571-113.77-73.687c-6.48-4.629-17.57-12.949-27.76-12.949-6.47 0-13.56 2.773-18.49 6.164l2.16 5.859c3.08 8.941 4.62 17.883 4.62 26.211 0 42.855-36.69 77.074-79.24 77.074-20.66 0-34.84-6.781-49.02-16.027l-200.2-130.074c.98-15.383 2.52-30.586 4.53-45.676l155.9 101.137-15.42-44.715c-3.09-9.242-4.62-18.192-4.62-26.821 0-44.089 38.85-76.773 79.24-76.773 32.37 0 64.13 20.039 75.23 51.805l13.86 40.382c10.19-6.164 21.91-9.246 33.62-9.246 15.72 0 26.2 4.938 37 12.024l80.46 52.418-15.1-43.789c-3.08-9.242-4.63-18.192-4.63-26.821 0-44.089 38.86-76.773 79.24-76.773 32.38 0 64.13 20.039 75.24 51.805l13.88 39.769c9.86-5.859 21.27-8.633 32.68-8.633 15.72 0 26.21 4.938 36.99 12.024l79.25 51.797-14.8-43.469c-4.33-12.34-6.17-24.051-6.17-34.531 0-43.164 32.99-68.457 67.21-68.762 21.27.305 41.32 7.715 86.03 36.695l232.17 150.774c1.53-12.649 13.55-25.594 26.82-28.375l-34.23-55.801c-7.4-12.024-11.1-25.598-11.1-38.852 0-33.304 23.74-64.441 68.76-64.441 20.05 0 38.55 8.328 80.47 35.461l63.64 41.422a668.095 668.095 0 0 1 2.5 50.297l-89.57-58.114c-14.8-9.562-40.39-28.367-57.34-28.367-18.82 0-26.21 13.574-26.21 25.59" style="fill:#fff;fill-opacity:1;fill-rule:nonzero;stroke:none"/></g><path d="M25.047 963.02H0v86.22h25.047v-13.54c4.105 5.69 8.484 9.85 13.14 12.48 4.66 2.64 9.95 3.96 15.864 3.96 7.152 0 12.965-1.46 17.449-4.4 4.48-2.93 7.66-7.35 9.535-13.27 3.985 5.86 8.512 10.28 13.578 13.23 5.07 2.96 10.621 4.44 16.657 4.44 6.093 0 11.265-1.12 15.511-3.39 4.25-2.25 7.543-5.64 9.891-10.14 1.226-2.47 2.105-5.25 2.637-8.36.527-3.1.789-7.82.789-14.14V963.02h-25.047v42.62c0 10.49-1.071 17.47-3.211 20.92-2.137 3.46-5.871 5.19-11.203 5.19-6.446 0-11.121-2.4-14.02-7.21-2.902-4.81-4.351-12.65-4.351-23.56v-37.96H57.219v42.62c0 10.14-1 17-2.992 20.57-1.993 3.58-5.418 5.36-10.282 5.36-6.62 0-11.425-2.41-14.414-7.25-2.988-4.83-4.484-12.61-4.484-23.34v-37.96M164.973 963.02v86.22h24.961v-86.22zm-2.2 121.64c0 3.98 1.438 7.41 4.305 10.28 2.871 2.87 6.301 4.31 10.285 4.31 4.043 0 7.516-1.42 10.414-4.27 2.903-2.83 4.352-6.28 4.352-10.32 0-4.05-1.449-7.5-4.352-10.37-2.898-2.87-6.371-4.31-10.414-4.31-3.984 0-7.414 1.47-10.285 4.4-2.867 2.92-4.305 6.35-4.305 10.28M218.406 963.02v66.62h-12.039v19.6h12.039v28.65h25.051v-28.65h12.039v-19.6h-12.039v-66.62h-25.051M439.102 1091.69v-80.07c0-17.46-4.598-30.495-13.797-39.108-9.2-8.617-23.059-12.922-41.575-12.922-18.808 0-32.812 4.305-42.011 12.922-9.199 8.613-13.797 21.648-13.797 39.108v80.07h27.332v-75.76c0-10.61 2.344-18.586 7.031-23.957 4.688-5.352 11.692-8.035 21.008-8.035 9.375 0 16.465 2.695 21.27 8.082 4.8 5.39 7.207 13.36 7.207 23.91v75.76h27.332M465.383 963.02v86.22h24.519v-13.54c4.512 5.63 9.36 9.77 14.547 12.44 5.184 2.66 10.942 4 17.27 4 6.679 0 12.289-1.12 16.832-3.39 4.539-2.25 8.129-5.69 10.765-10.32 1.289-2.41 2.211-5.11 2.77-8.14.555-3 .836-7.74.836-14.18V963.02h-25.051v42.62c0 10.61-1.23 17.61-3.691 21.01-2.461 3.4-6.68 5.1-12.657 5.1-3.457 0-6.636-.71-9.535-2.16-2.902-1.43-5.316-3.46-7.254-6.11-1.519-2.04-2.621-4.39-3.293-7.03-.675-2.63-1.011-6.65-1.011-12.04v-41.39h-25.047M579.727 963.02v66.62h-12.039v19.6h12.039v28.65h25.046v-28.65h12.043v-19.6h-12.043v-66.62h-25.046M691.699 1015.05c-.703 5.45-2.679 9.56-5.933 12.35-3.25 2.78-7.692 4.17-13.317 4.17s-10.121-1.39-13.488-4.17c-3.371-2.79-5.523-6.9-6.461-12.35zm24.785-15.116h-64.773c.992-6.211 3.25-10.852 6.766-13.938 3.515-3.066 8.293-4.609 14.328-4.609 4.566 0 8.508.879 11.82 2.636 3.309 1.758 6.078 4.422 8.305 7.997l20.215-10.106c-4.688-7.559-10.372-13.164-17.051-16.836-6.68-3.652-14.617-5.488-23.821-5.488-13.945 0-24.988 4.16-33.132 12.48-8.145 8.321-12.215 19.512-12.215 33.57 0 13.54 4.262 24.67 12.785 33.4 8.527 8.73 19.437 13.1 32.738 13.1 13.711 0 24.555-4.09 32.524-12.26 7.965-8.18 11.953-19.32 11.953-33.44 0-.76-.031-1.6-.09-2.51-.059-.9-.176-2.24-.352-3.996M759.641 1027.09c2.515 8.38 6.136 14.65 10.851 18.81 4.719 4.16 10.563 6.24 17.535 6.24 1.582 0 4.192-.29 7.825-.88.703-.12 1.226-.21 1.582-.26l-3.782-26.9a32.354 32.354 0 0 1-5.668 1.72c-1.906.37-3.914.57-6.019.57-7.617 0-13.098-1.96-16.438-5.84-3.339-3.91-5.007-10.42-5.007-19.57v-37.96h-25.051v86.22h24.699l-.527-22.15M800.332 978.137l19.246 9.929c.649-3.339 2.375-5.976 5.188-7.91 2.812-1.933 6.297-2.898 10.461-2.898 4.097 0 7.324.75 9.668 2.234 2.339 1.504 3.511 3.567 3.511 6.199 0 4.164-4.16 7.649-12.476 10.461-2.578.879-4.629 1.614-6.157 2.2-10.132 3.808-17.152 7.648-21.046 11.508-3.899 3.87-5.844 8.65-5.844 14.33 0 8.44 3.308 15.26 9.93 20.48 6.621 5.21 15.351 7.82 26.191 7.82 7.734 0 14.43-1.55 20.082-4.66 5.656-3.1 9.769-7.5 12.352-13.18l-18.372-9.14c-.996 3.22-2.722 5.66-5.183 7.34-2.461 1.66-5.539 2.5-9.231 2.5-3.691 0-6.679-.76-8.964-2.28-2.286-1.53-3.426-3.52-3.426-5.98 0-4.28 5.679-8.26 17.051-11.95 1.343-.41 2.371-.74 3.074-.97 9.433-3.11 16.14-6.73 20.129-10.85 3.98-4.14 5.972-9.394 5.972-15.781 0-8.555-3.308-15.351-9.929-20.391-6.621-5.039-15.555-7.558-26.805-7.558-8.906 0-16.512 1.66-22.809 4.961-6.3 3.32-10.504 7.844-12.613 13.586M893.938 963.02v66.62h-12.043v19.6h12.043v28.65h25.046v-28.65h12.039v-19.6h-12.039v-66.62h-25.046M995.098 1078.07c0 2.98 1.156 5.62 3.472 7.91 2.31 2.28 4.99 3.42 8.04 3.42 3.17 0 5.85-1.11 8.04-3.34 2.2-2.22 3.3-4.89 3.3-7.99 0-3.34-1.07-6.1-3.21-8.27-2.14-2.16-4.85-3.25-8.13-3.25-3.22 0-5.95 1.11-8.172 3.29-2.227 2.21-3.34 4.95-3.34 8.23zm-32.871 0c0 2.98 1.156 5.62 3.472 7.91 2.313 2.28 4.992 3.42 8.039 3.42 3.11 0 5.774-1.11 8-3.34 2.227-2.22 3.34-4.89 3.34-7.99 0-3.34-1.086-6.1-3.254-8.27-2.168-2.16-4.859-3.25-8.086-3.25-3.277 0-6.019 1.11-8.215 3.29-2.199 2.21-3.296 4.95-3.296 8.23zm8.789-28.83v-45.35c0-7.62 1.48-13.07 4.437-16.351 2.961-3.281 7.777-4.922 14.457-4.922 6.621 0 11.43 1.66 14.42 4.961 2.98 3.32 4.48 8.75 4.48 16.312v45.35h25.05v-45.35c0-15.179-3.55-26.351-10.64-33.538-7.09-7.168-18.07-10.762-32.954-10.762-15.176 0-26.325 3.574-33.446 10.723-7.117 7.148-10.675 18.339-10.675 33.577v45.35h24.871M1061.02 963.02v66.62h-12.05v19.6h12.05v28.65h25.04v-28.65h12.05v-19.6h-12.05v-66.62h-25.04M1183.97 963.02h-82.61l45.7 66.62h-40.17v19.6h78.14l-45.18-66.623h44.12V963.02M1224.67 1049.24v-45.35c0-7.62 1.48-13.07 4.44-16.351 2.96-3.281 7.77-4.922 14.45-4.922 6.63 0 11.43 1.66 14.42 4.961 2.99 3.32 4.48 8.75 4.48 16.312v45.35h25.05v-45.35c0-15.179-3.55-26.351-10.63-33.538-7.09-7.168-18.08-10.762-32.96-10.762-15.18 0-26.33 3.574-33.45 10.723-7.12 7.148-10.68 18.339-10.68 33.577v45.35h24.88M1311.59 963.02v86.22h24.52v-13.54c4.52 5.63 9.36 9.77 14.55 12.44 5.18 2.66 10.94 4 17.27 4 6.68 0 12.29-1.12 16.83-3.39 4.55-2.25 8.13-5.69 10.77-10.32 1.29-2.41 2.21-5.11 2.76-8.14.57-3 .84-7.74.84-14.18V963.02h-25.05v42.62c0 10.61-1.23 17.61-3.69 21.01-2.46 3.4-6.68 5.1-12.66 5.1-3.45 0-6.63-.71-9.53-2.16-2.9-1.43-5.32-3.46-7.25-6.11-1.53-2.04-2.62-4.39-3.3-7.03-.67-2.63-1.01-6.65-1.01-12.04v-41.39h-25.05M1486.41 1006.26c0 7.62-1.94 13.62-5.8 18.02-3.87 4.39-9.15 6.59-15.82 6.59-6.86 0-12.22-2.18-16.09-6.55-3.87-4.36-5.8-10.38-5.8-18.06 0-7.674 1.9-13.655 5.71-17.932 3.81-4.273 9.14-6.414 16-6.414 6.85 0 12.2 2.141 16.04 6.414 3.83 4.277 5.76 10.258 5.76 17.932zm22.67-41.834c0-9.082-.54-15.473-1.63-19.16-1.07-3.696-2.94-6.887-5.57-9.582-3.75-4.043-8.56-7.032-14.42-8.965-5.86-1.934-12.98-2.903-21.36-2.903-14 0-24.64 2.231-31.9 6.684-7.27 4.449-11.22 11.219-11.87 20.301h27.51c.41-3.34 1.94-5.801 4.57-7.383 2.64-1.582 6.54-2.371 11.69-2.371 6.8 0 11.7 1.758 14.73 5.269 3.01 3.52 4.52 9.375 4.52 17.579v12.304c-3.34-5.332-7.37-9.285-12.08-11.863-4.73-2.578-10.3-3.867-16.75-3.867-11.83 0-21.3 4.14-28.39 12.441-7.09 8.281-10.63 19.465-10.63 33.53 0 14.29 3.46 25.49 10.37 33.57 6.92 8.09 16.47 12.13 28.65 12.13 6.27 0 11.85-1.46 16.75-4.35 4.88-2.91 8.98-7.16 12.26-12.79v14.24h23.55v-84.814M1610.33 963.02l-35.07 86.22h28.92l14.59-44.83c1.17-3.63 2.11-7 2.81-10.101.71-3.11 1.2-6.157 1.5-9.141.7 4.512 1.4 8.348 2.11 11.512.7 3.164 1.52 6.03 2.46 8.61l14.67 43.95h28.48l-35.42-86.22h-25.05M1746.83 1006c0 7.03-2.05 12.63-6.16 16.83-4.1 4.18-9.61 6.28-16.52 6.28s-12.39-2.08-16.44-6.24c-4.04-4.16-6.06-9.78-6.06-16.87 0-7.035 2.02-12.66 6.06-16.879 4.05-4.219 9.53-6.328 16.44-6.328 6.86 0 12.34 2.109 16.48 6.328 4.13 4.219 6.2 9.844 6.2 16.879zm25.48-.18c0-13.242-4.53-24.257-13.57-33.047-9.06-8.789-20.53-13.183-34.41-13.183-14.01 0-25.55 4.394-34.63 13.183-9.08 8.79-13.63 19.805-13.63 33.047 0 13.18 4.57 24.2 13.72 33.05 9.14 8.84 20.65 13.27 34.54 13.27 13.94 0 25.43-4.37 34.45-13.1 9.02-8.73 13.53-19.8 13.53-33.22M1791.21 963.02v86.22h24.52v-13.54c4.51 5.63 9.36 9.77 14.55 12.44 5.18 2.66 10.94 4 17.27 4 6.68 0 12.28-1.12 16.83-3.39 4.54-2.25 8.13-5.69 10.77-10.32 1.29-2.41 2.2-5.11 2.77-8.14.55-3 .83-7.74.83-14.18V963.02h-25.05v42.62c0 10.61-1.23 17.61-3.69 21.01-2.46 3.4-6.68 5.1-12.66 5.1-3.45 0-6.64-.71-9.53-2.16-2.91-1.43-5.32-3.46-7.25-6.11-1.53-2.04-2.63-4.39-3.29-7.03-.69-2.63-1.02-6.65-1.02-12.04v-41.39h-25.05M885.852 531.016v257.343h55.015V671.816l85.783 116.543h63.63l-92.104-117.246 95.444-140.097h-66.27l-86.483 134.648V531.016h-55.015M1157.43 703.457v-90.703c0-15.234 2.96-26.133 8.88-32.695 5.92-6.563 15.56-9.844 28.91-9.844 13.25 0 22.86 3.32 28.83 9.941 5.98 6.621 8.97 17.481 8.97 32.598v90.703h50.1v-90.703c0-30.352-7.09-52.695-21.27-67.051-14.18-14.355-36.16-21.543-65.92-21.543-30.35 0-52.65 7.149-66.89 21.445-14.24 14.297-21.35 36.68-21.35 67.149v90.703h49.74M1333.21 531.016v272.461h49.92V531.016h-49.92M1440.09 531.016v133.242h-24.08v39.199h24.08v57.305h50.1v-57.305h24.08v-39.199h-24.08V531.016h-50.1M1594.25 703.457v-90.703c0-15.234 2.96-26.133 8.88-32.695 5.91-6.563 15.55-9.844 28.91-9.844 13.24 0 22.85 3.32 28.83 9.941 5.98 6.621 8.96 17.481 8.96 32.598v90.703h50.1v-90.703c0-30.352-7.09-52.695-21.27-67.051-14.18-14.355-36.15-21.543-65.92-21.543-30.35 0-52.64 7.149-66.88 21.445-14.24 14.297-21.36 36.68-21.36 67.149v90.703h49.75M1816.44 659.16c5.03 16.758 12.27 29.297 21.7 37.617 9.44 8.321 21.13 12.481 35.07 12.481 3.17 0 8.38-.586 15.65-1.758l3.16-.527-7.56-53.789c-3.75 1.523-7.53 2.675-11.33 3.437-3.81.762-7.83 1.133-12.05 1.133-15.23 0-26.19-3.887-32.87-11.68-6.68-7.793-10.02-20.84-10.02-39.121v-75.937h-50.09v172.441h49.39l-1.05-44.297" style="fill:#231f20;fill-opacity:1;fill-rule:nonzero;stroke:none" transform="matrix(.13333 0 0 -.13333 0 176)"/></svg>