<svg width="586.827" height="384.827" xmlns="http://www.w3.org/2000/svg"><path d="M76.914 1283.59c-39.262 0-40.879-68.85-40.879-108.12 0-25.82-5.375-119.4 39.266-119.4 37.109 0 40.34 45.71 40.34 118.33 0 62.93-6.457 109.19-38.727 109.19zm35.496-230.22h-1.07c-10.223-15.6-25.817-25.82-45.719-25.82C8.066 1027.55 0 1097.48 0 1172.77c0 75.31 7.531 139.32 68.848 139.32 19.359 0 31.734-8.07 42.492-23.13h1.07v173.2h34.969v-430.3H112.41v21.51M263.023 1031.86h-34.96v275.92h34.96zm-17.21 331.33c-14.524 0-26.356 11.83-26.356 26.35 0 13.99 11.832 25.82 26.356 25.82 13.984 0 25.82-11.83 25.82-25.82 0-14.52-11.836-26.35-25.82-26.35M452.355 1192.14l-.542 4.84c-1.075 26.36-2.149 82.3-38.727 82.3-33.344 0-40.879-62.39-40.879-87.14zm-80.683-29.58v-8.07c0-27.43 4.844-94.13 43.031-94.13 30.656 0 34.961 43.03 34.961 65.09h36.035c-.539-41.96-16.676-97.9-67.769-97.9-72.614 0-82.293 86.06-82.293 141.47 0 49.48 10.754 143.07 77.449 143.07 64.547 0 74.766-84.45 74.766-132.86v-16.67h-116.18M794.434 1172.77c0 42.5-.539 110.82-40.875 110.82-37.114 0-38.731-57.03-38.731-105.97 0-53.25 2.152-121.55 40.344-121.55 32.269 0 39.262 31.72 39.262 116.7zm-76.375 116.19h1.078c10.758 15.06 23.125 23.13 43.027 23.13 64.008 0 68.309-83.37 68.309-139.32 0-62.39-1.618-145.22-65.618-145.22-19.906 0-35.503 10.22-45.718 25.82h-1.078V926.441h-34.961v381.339h34.961v-18.82M975.16 1370.71c0 14.53 11.836 26.36 26.36 26.36 14.52 0 26.35-11.83 26.35-26.36 0-14.52-11.83-26.35-26.35-26.35-14.524 0-26.36 11.83-26.36 26.35zm-13.984-87.12c-38.727 0-40.879-61.32-40.879-108.12 0-114.03 18.828-119.4 39.269-119.4 33.879 0 40.336 31.72 40.336 118.33 0 59.69-4.3 109.19-38.726 109.19zm-64.008 87.12c0 14.53 11.836 26.36 26.355 26.36 14.524 0 26.36-11.83 26.36-26.36 0-14.52-11.836-26.35-26.36-26.35-14.519 0-26.355 11.83-26.355 26.35zm134.472-338.85h-34.964v21.51h-1.074c-10.219-15.6-25.817-25.82-45.719-25.82-44.106 0-65.621 24.75-65.621 145.22 0 61.86 2.148 139.32 68.847 139.32 19.364 0 31.735-8.07 42.493-23.13h1.074v18.82h34.964v-275.92M1170.41 1283.59c-39.26 0-40.88-68.85-40.88-108.12 0-25.82-5.37-119.4 39.27-119.4 37.11 0 40.34 45.71 40.34 118.33 0 62.93-6.46 109.19-38.73 109.19zm35.5-230.22h-1.08c-10.22-15.6-25.81-25.82-45.71-25.82-57.56 0-65.62 69.93-65.62 145.22 0 75.31 7.53 139.32 68.84 139.32 19.36 0 31.74-8.07 42.49-23.13h1.08v173.2h34.96v-430.3h-34.96v21.51M1379.65 1283.59c-38.73 0-40.88-61.32-40.88-108.12 0-114.03 18.83-119.4 39.27-119.4 33.88 0 40.33 31.72 40.33 118.33 0 59.69-4.3 109.19-38.72 109.19zm70.46-251.73h-34.96v21.51h-1.08c-10.22-15.6-25.81-25.82-45.72-25.82-44.1 0-65.62 24.75-65.62 145.22 0 61.86 2.15 139.32 68.85 139.32 19.36 0 31.74-8.07 42.49-23.13h1.08v18.82h34.96v-275.92M1591.57 1060.36c37.12 0 38.73 54.33 38.73 114.57 0 50.56-3.23 108.66-41.42 108.66-25.28 0-40.88-17.22-40.88-118.34 0-30.12-.53-104.89 43.57-104.89zm70.46-38.72c0-51.64-2.15-99.511-72.07-99.511-48.41 0-71 29.043-71 76.383v10.218h34.42v-4.84c0-25.82 7-48.949 37.11-48.949 39.27 0 36.04 34.43 36.04 64.009v32.27c-11.83-13.45-26.35-19.36-44.64-19.36-68.85 0-69.92 95.2-69.92 144.15 0 46.26 5.37 136.08 69.38 136.08 18.83 0 34.43-8.61 44.65-23.13h1.07v18.82h34.96v-286.14M1749.17 1170.09c0-26.9 1.07-109.73 43.03-109.73 41.95 0 43.02 82.83 43.02 109.73 0 26.36-1.07 109.19-43.02 109.19-41.96 0-43.03-82.83-43.03-109.19zm122.09 0c0-52.17-6.45-142.54-79.06-142.54-72.62 0-79.07 90.37-79.07 142.54 0 51.64 6.45 142 79.07 142 72.61 0 79.06-90.36 79.06-142M1994.45 1060.36c37.11 0 38.72 54.33 38.72 114.57 0 50.56-3.22 108.66-41.42 108.66-25.27 0-40.88-17.22-40.88-118.34 0-30.12-.53-104.89 43.58-104.89zm70.46-38.72c0-51.64-2.16-99.511-72.08-99.511-48.41 0-71 29.043-71 76.383v10.218h34.42v-4.84c0-25.82 7-48.949 37.11-48.949 39.27 0 36.04 34.43 36.04 64.009v32.27c-11.83-13.45-26.35-19.36-44.64-19.36-68.85 0-69.92 95.2-69.92 144.15 0 46.26 5.37 136.08 69.38 136.08 18.83 0 34.43-8.61 44.64-23.13h1.09v18.82h34.96v-286.14M2159.03 1031.86h-34.96v275.92h34.96zm-17.22 331.33c-14.52 0-26.36 11.83-26.36 26.35 0 13.99 11.84 25.82 26.36 25.82 13.99 0 25.82-11.83 25.82-25.82 0-14.52-11.83-26.35-25.82-26.35M2345.13 1251.31h-1.07c-10.23 14.52-26.36 27.97-45.73 27.97-20.97 0-34.42-16.13-34.42-36.57 0-26.36 22.59-42.5 44.65-60.78 22.59-18.83 44.64-39.27 44.64-75.31 0-44.11-29.58-79.07-75.3-79.07-17.21 0-36.58 8.08-50.02 18.83v40.88c13.44-13.99 27.96-26.9 48.94-26.9 24.2 0 40.34 18.83 40.34 41.96 0 27.43-22.05 45.72-44.65 65.62-22.05 19.37-44.63 40.88-44.63 73.68 0 41.42 27.43 70.47 68.84 70.47 17.75 0 34.43-6.99 48.41-17.75v-43.03M2510.81 1260.99c-8.62 9.15-19.91 18.29-33.35 18.29-45.19 0-49.49-78.53-49.49-110.26 0-27.44 5.91-108.66 47.33-108.66 16.14 0 26.36 12.38 34.42 24.75h1.09v-43.58c-10.23-8.6-26.36-13.98-39.81-13.98-63.47 0-79.07 89.29-79.07 136.62 0 52.18 10.76 147.92 80.68 147.92 12.91 0 26.9-3.77 38.2-10.76v-40.34M2606.01 1285.73c13.99 16.14 32.8 26.36 54.32 26.36 50.56 0 53.25-44.11 53.25-82.83v-197.4h-34.96v191.48c0 43.03-4.85 60.25-31.19 60.25-39.81 0-41.42-43.58-41.42-72.62v-179.11h-34.96v430.3h34.96v-176.43M2881.39 1192.14l-.54 4.84c-1.07 26.36-2.14 82.3-38.72 82.3-33.35 0-40.88-62.39-40.88-87.14zm-80.67-29.58v-8.07c0-27.43 4.83-94.13 43.03-94.13 30.65 0 34.96 43.03 34.96 65.09h36.03c-.54-41.96-16.67-97.9-67.77-97.9-72.61 0-82.3 86.06-82.3 141.47 0 49.48 10.76 143.07 77.46 143.07 64.54 0 74.76-84.45 74.76-132.86v-16.67h-116.17" style="fill:#466475;fill-opacity:1;fill-rule:nonzero;stroke:none" transform="matrix(.13333 0 0 -.13333 0 384.827)"/><path d="m3978.82 2406.16-428.22 247.23-381.56 220.3a93.283 93.283 0 0 1-93.3 0l-381.57-220.3-428.21-247.23-288.26-166.42c-62.2-35.92-62.2-125.69 0-161.61l288.26-166.42 428.21-247.23 381.57-220.3a93.283 93.283 0 0 1 93.3 0l381.56 220.3 428.22 247.23 288.26 166.42c62.2 35.92 62.2 125.69 0 161.61l-288.26 166.42" style="fill:#5aa5da;fill-opacity:1;fill-rule:nonzero;stroke:none" transform="matrix(.13333 0 0 -.13333 0 384.827)"/><path d="m3973.04 1909.68-.02.01v-.01l-428.21-247.24-381.56-220.29c-28.87-16.67-46.66-47.47-46.66-80.8V93.441c0-71.82 77.76-116.71 139.96-80.8l288.26 166.429 428.21 247.231 381.56 220.289c28.87 16.672 46.66 47.469 46.66 80.808V1995.3c0 71.83-77.76 116.71-139.96 80.8l-288.24-166.42" style="fill:#bce8ee;fill-opacity:1;fill-rule:nonzero;stroke:none" transform="matrix(.13333 0 0 -.13333 0 384.827)"/><path d="M1203.33 776.762c13.99 16.129 32.82 26.359 54.33 26.359 50.56 0 53.25-44.109 53.25-82.84V522.879h-34.96v191.492c0 43.02-4.84 60.238-31.2 60.238-39.8 0-41.42-43.57-41.42-72.621V522.879h-34.96V953.18h34.96V776.762M1408.8 661.109c0-26.89 1.08-109.718 43.04-109.718 41.95 0 43.02 82.828 43.02 109.718 0 26.36-1.07 109.192-43.02 109.192-41.96 0-43.04-82.832-43.04-109.192zm122.1 0c0-52.168-6.45-142.531-79.06-142.531-72.62 0-79.07 90.363-79.07 142.531 0 51.653 6.45 142.012 79.07 142.012 72.61 0 79.06-90.359 79.06-142.012M1693.34 752.012c-8.6 9.148-19.9 18.289-33.34 18.289-45.19 0-49.49-78.52-49.49-110.262 0-27.43 5.92-108.648 47.34-108.648 16.13 0 26.35 12.371 34.42 24.738h1.07v-43.57c-10.21-8.598-26.35-13.981-39.8-13.981-63.47 0-79.06 89.281-79.06 136.621 0 52.172 10.75 147.922 80.68 147.922 12.91 0 26.89-3.769 38.18-10.762v-40.347M1777.79 776.762c13.99 16.129 32.82 26.359 54.33 26.359 50.56 0 53.25-44.109 53.25-82.84V522.879h-34.96v191.492c0 43.02-4.84 60.238-31.2 60.238-39.8 0-41.42-43.57-41.42-72.621V522.879h-34.96V953.18h34.96V776.762M2049.96 742.34h-1.08c-10.21 14.519-26.36 27.961-45.71 27.961-20.99 0-34.42-16.129-34.42-36.571 0-26.359 22.58-42.5 44.63-60.781 22.59-18.828 44.64-39.269 44.64-75.301 0-44.109-29.58-79.07-75.29-79.07-17.22 0-36.58 8.07-50.02 18.82v40.883c13.44-13.98 27.97-26.89 48.95-26.89 24.19 0 40.33 18.828 40.33 41.949 0 27.43-22.05 45.719-44.64 65.629-22.06 19.363-44.64 40.883-44.64 73.679 0 41.411 27.42 70.473 68.84 70.473 17.75 0 34.42-7 48.41-17.762V742.34M2215.64 752.012c-8.61 9.148-19.9 18.289-33.35 18.289-45.19 0-49.48-78.52-49.48-110.262 0-27.43 5.91-108.648 47.32-108.648 16.14 0 26.36 12.371 34.43 24.738h1.08v-43.57c-10.22-8.598-26.36-13.981-39.81-13.981-63.46 0-79.07 89.281-79.07 136.621 0 52.172 10.76 147.922 80.69 147.922 12.91 0 26.89-3.769 38.19-10.762v-40.347M2310.84 776.762c13.99 16.129 32.81 26.359 54.32 26.359 50.57 0 53.25-44.109 53.25-82.84V522.879h-34.96v191.492c0 43.02-4.84 60.238-31.19 60.238-39.8 0-41.42-43.57-41.42-72.621V522.879h-34.96V953.18h34.96V776.762M2521.15 798.809V625.621c0-37.66 2.16-74.23 36.58-74.23 35.5 0 37.11 36.57 37.65 74.23v173.188h34.96v-202.77c0-46.258-22.59-77.461-72.07-77.461-48.95 0-72.08 30.66-72.08 77.461v202.77h34.96M2722.31 522.879h-34.96V953.18h34.96V522.879M2879.36 683.172l-.54 4.84c-1.07 26.359-2.15 82.289-38.72 82.289-33.35 0-40.88-62.391-40.88-87.129zm-80.67-29.582v-8.07c0-27.43 4.83-94.129 43.02-94.129 30.66 0 34.96 43.031 34.96 65.089h36.04c-.54-41.96-16.67-97.902-67.77-97.902-72.61 0-82.3 86.063-82.3 141.461 0 49.481 10.76 143.082 77.46 143.082 64.54 0 74.76-84.461 74.76-132.859V653.59h-116.17M591.254 193.48c0-26.898 1.074-109.73 43.031-109.73 41.953 0 43.028 82.832 43.028 109.73 0 26.36-1.075 109.192-43.028 109.192-41.957 0-43.031-82.832-43.031-109.192zm122.101 0c0-52.179-6.457-142.539-79.07-142.539-72.609 0-79.066 90.36-79.066 142.539 0 51.641 6.457 142 79.066 142 72.613 0 79.07-90.359 79.07-142M887.086 198.859c0 62.93-5.914 108.11-40.879 108.11-42.492 0-38.727-81.219-38.727-105.957 0-33.891-4.3-121.563 40.34-121.563 28.508 0 39.266 24.742 39.266 119.41zm-111.34 286.68h34.961V312.352h1.074c10.223 15.597 23.129 23.128 43.032 23.128 64.011 0 68.312-76.91 68.312-139.32 0-69.922-5.383-145.219-65.621-145.219-19.902 0-35.5 10.22-45.723 25.82h-1.074V55.25h-34.961v430.289M1093.64 215.531l-.54 4.84c-1.08 26.359-2.15 82.301-38.73 82.301-33.35 0-40.88-62.402-40.88-87.141zm-80.69-29.582v-8.07c0-27.43 4.85-94.129 43.04-94.129 30.66 0 34.96 43.031 34.96 65.09h36.03c-.53-41.949-16.67-97.899-67.77-97.899-72.612 0-82.292 86.059-82.292 141.457 0 49.493 10.758 143.082 77.452 143.082 64.55 0 74.77-84.449 74.77-132.859v-16.672h-116.19M1225.95 294.602h1.08c7.53 19.367 22.58 41.418 45.71 40.878v-40.878l-6.99.539c-36.04 0-39.8-34.961-39.8-79.071V55.25h-34.96v275.922h34.96v-36.57M1407.21 394.102c0 14.519 11.83 26.359 26.35 26.359 14.52 0 26.36-11.84 26.36-26.359 0-14.52-11.84-26.352-26.36-26.352s-26.35 11.832-26.35 26.352zm-56.48-200.622c0-26.898 1.07-109.73 43.03-109.73 41.95 0 43.03 82.832 43.03 109.73 0 26.36-1.08 109.192-43.03 109.192-41.96 0-43.03-82.832-43.03-109.192zm-21.52 200.622c0 14.519 11.83 26.359 26.36 26.359 14.52 0 26.35-11.84 26.35-26.359 0-14.52-11.83-26.352-26.35-26.352-14.53 0-26.36 11.832-26.36 26.352zm143.62-200.622c0-52.179-6.46-142.539-79.07-142.539s-79.07 90.36-79.07 142.539c0 51.641 6.46 142 79.07 142s79.07-90.359 79.07-142M1629.89 274.699h-1.08c-10.22 14.52-26.35 27.973-45.71 27.973-20.98 0-34.43-16.141-34.43-36.57 0-26.364 22.59-42.5 44.65-60.793 22.59-18.821 44.64-39.258 44.64-75.297 0-44.114-29.59-79.07-75.3-79.07-17.22 0-36.58 8.078-50.02 18.828v40.878c13.44-13.988 27.97-26.898 48.94-26.898 24.21 0 40.34 18.832 40.34 41.949 0 27.442-22.05 45.731-44.64 65.633-22.06 19.359-44.64 40.879-44.64 73.68 0 41.418 27.43 70.468 68.84 70.468 17.75 0 34.43-6.992 48.41-17.75v-43.031M1801.47 298.898h-45.72V55.25h-34.96v243.648h-29.58v32.274h29.58v75.308h34.96v-75.308h45.72v-32.274M1949.39 215.531l-.55 4.84c-1.07 26.359-2.15 82.301-38.73 82.301-33.34 0-40.87-62.402-40.87-87.141zm-80.69-29.582v-8.07c0-27.43 4.84-94.129 43.03-94.129 30.67 0 34.96 43.031 34.96 65.09h36.04c-.54-41.949-16.68-97.899-67.77-97.899-72.61 0-82.29 86.059-82.29 141.457 0 49.493 10.75 143.082 77.44 143.082 64.55 0 74.77-84.449 74.77-132.859v-16.672H1868.7M2081.7 294.602h1.08c7.53 19.367 22.59 41.418 45.71 40.878v-40.878l-6.99.539c-36.04 0-39.8-34.961-39.8-79.071V55.25h-34.96v275.922h34.96v-36.57M2217.78 294.602h1.07c7.53 19.367 22.59 41.418 45.72 40.878v-40.878l-7 .539c-36.03 0-39.79-34.961-39.79-79.071V55.25h-34.96v275.922h34.96v-36.57M2412.49 215.531l-.54 4.84c-1.08 26.359-2.15 82.301-38.72 82.301-33.35 0-40.88-62.402-40.88-87.141zm-80.68-29.582v-8.07c0-27.43 4.84-94.129 43.03-94.129 30.65 0 34.96 43.031 34.96 65.09h36.03c-.53-41.949-16.66-97.899-67.77-97.899-72.61 0-82.29 86.059-82.29 141.457 0 49.493 10.76 143.082 77.46 143.082 64.54 0 74.75-84.449 74.75-132.859v-16.672h-116.17M2544.81 55.25h-34.96v275.922h34.96zm-17.22 331.32c-14.52 0-26.35 11.84-26.35 26.36 0 13.992 11.83 25.82 26.35 25.82 13.99 0 25.82-11.828 25.82-25.82 0-14.52-11.83-26.36-25.82-26.36M2714.78 284.379c-8.61 9.152-19.9 18.293-33.35 18.293-45.18 0-49.48-78.531-49.48-110.274 0-27.429 5.91-108.648 47.32-108.648 16.15 0 26.36 12.371 34.43 24.75h1.08V64.922c-10.22-8.602-26.36-13.98-39.8-13.98-63.47 0-79.08 89.288-79.08 136.617 0 52.179 10.77 147.921 80.69 147.921 12.91 0 26.89-3.769 38.19-10.761v-40.34M2809.99 309.121c13.98 16.141 32.8 26.359 54.31 26.359 50.57 0 53.25-44.109 53.25-82.832V55.25h-34.96v191.48c0 43.032-4.84 60.239-31.19 60.239-39.8 0-41.41-43.571-41.41-72.61V55.25h-34.97v430.289h34.97V309.121" style="fill:#9fb9bf;fill-opacity:1;fill-rule:nonzero;stroke:none" transform="matrix(.13333 0 0 -.13333 0 384.827)"/></svg>